<svg width="785" height="442" viewBox="0 0 785 442" fill="none" xmlns="http://www.w3.org/2000/svg">
<rect width="785" height="442" rx="20" fill="white"/>
<path d="M36.8182 35.1406C36.7287 34.8295 36.603 34.5547 36.4411 34.3161C36.2791 34.0732 36.081 33.8686 35.8466 33.7024C35.6165 33.532 35.3523 33.402 35.054 33.3125C34.7599 33.223 34.4339 33.1783 34.076 33.1783C33.407 33.1783 32.8189 33.3445 32.3118 33.6768C31.8089 34.0092 31.4169 34.4929 31.1357 35.1278C30.8544 35.7585 30.7138 36.5298 30.7138 37.4418C30.7138 38.3537 30.8523 39.1293 31.1293 39.7685C31.4063 40.4077 31.7983 40.8956 32.3054 41.2322C32.8125 41.5646 33.4112 41.7308 34.1016 41.7308C34.728 41.7308 35.2628 41.62 35.706 41.3984C36.1534 41.1726 36.4943 40.8551 36.7287 40.446C36.9673 40.0369 37.0866 39.5533 37.0866 38.995L37.6491 39.0781H34.2741V36.9943H39.7521V38.6435C39.7521 39.794 39.5092 40.7827 39.0234 41.6094C38.5376 42.4318 37.8686 43.0668 37.0163 43.5142C36.1641 43.9574 35.1882 44.179 34.0888 44.179C32.8615 44.179 31.7834 43.9084 30.8544 43.3672C29.9254 42.8217 29.201 42.0483 28.6811 41.0469C28.1655 40.0412 27.9077 38.848 27.9077 37.4673C27.9077 36.4062 28.0611 35.4602 28.3679 34.6293C28.679 33.794 29.1136 33.0866 29.6719 32.5071C30.2301 31.9276 30.88 31.4865 31.6214 31.1839C32.3629 30.8814 33.1662 30.7301 34.0312 30.7301C34.7727 30.7301 35.4631 30.8388 36.1023 31.0561C36.7415 31.2692 37.3082 31.5717 37.8026 31.9638C38.3011 32.3558 38.7081 32.8224 39.0234 33.3636C39.3388 33.9006 39.5412 34.4929 39.6307 35.1406H36.8182ZM41.78 44V34.1818H44.4199V35.8949H44.5222C44.7012 35.2855 45.0016 34.8253 45.4235 34.5142C45.8453 34.1989 46.3311 34.0412 46.8809 34.0412C47.0172 34.0412 47.1642 34.0497 47.3219 34.0668C47.4796 34.0838 47.6181 34.1072 47.7374 34.1371V36.5533C47.6096 36.5149 47.4327 36.4808 47.2069 36.451C46.981 36.4212 46.7743 36.4062 46.5868 36.4062C46.1863 36.4062 45.8283 36.4936 45.513 36.6683C45.2019 36.8388 44.9547 37.0774 44.7715 37.3842C44.5925 37.6911 44.503 38.0447 44.503 38.4453V44H41.78ZM51.6637 44.1854C51.0373 44.1854 50.479 44.0767 49.989 43.8594C49.4989 43.6378 49.1112 43.3118 48.8256 42.8814C48.5444 42.4467 48.4038 41.9055 48.4038 41.2578C48.4038 40.7124 48.5039 40.2543 48.7042 39.8835C48.9045 39.5128 49.1772 39.2145 49.5224 38.9886C49.8675 38.7628 50.2596 38.5923 50.6985 38.4773C51.1417 38.3622 51.6062 38.2812 52.092 38.2344C52.663 38.1747 53.1232 38.1193 53.4727 38.0682C53.8221 38.0128 54.0756 37.9318 54.2333 37.8253C54.391 37.7187 54.4698 37.5611 54.4698 37.3523V37.3139C54.4698 36.9091 54.342 36.5959 54.0863 36.3743C53.8349 36.1527 53.4769 36.0419 53.0124 36.0419C52.5224 36.0419 52.1325 36.1506 51.8427 36.3679C51.5529 36.581 51.3612 36.8494 51.2674 37.1733L48.7489 36.9688C48.8768 36.3722 49.1282 35.8565 49.5032 35.4219C49.8782 34.983 50.3619 34.6463 50.9542 34.4119C51.5508 34.1733 52.2411 34.054 53.0252 34.054C53.5707 34.054 54.0927 34.1179 54.5913 34.2457C55.0941 34.3736 55.5394 34.5717 55.9272 34.8402C56.3192 35.1087 56.6282 35.4538 56.854 35.8757C57.0799 36.2933 57.1928 36.794 57.1928 37.3778V44H54.6104V42.6385H54.5337C54.3761 42.9453 54.1651 43.2159 53.9009 43.4503C53.6367 43.6804 53.3192 43.8615 52.9485 43.9936C52.5778 44.1214 52.1495 44.1854 51.6637 44.1854ZM52.4435 42.3061C52.8441 42.3061 53.1978 42.2273 53.5046 42.0696C53.8114 41.9077 54.0522 41.6903 54.2269 41.4176C54.4016 41.1449 54.489 40.8359 54.489 40.4908V39.4489C54.4038 39.5043 54.2866 39.5554 54.1374 39.6023C53.9925 39.6449 53.8285 39.6854 53.6452 39.7237C53.462 39.7578 53.2788 39.7898 53.0955 39.8196C52.9123 39.8452 52.7461 39.8686 52.5969 39.8899C52.2773 39.9368 51.9982 40.0114 51.7596 40.1136C51.521 40.2159 51.3356 40.3544 51.2035 40.5291C51.0714 40.6996 51.0053 40.9126 51.0053 41.1683C51.0053 41.5391 51.1396 41.8224 51.408 42.0185C51.6808 42.2102 52.0259 42.3061 52.4435 42.3061ZM62.0284 38.3239V44H59.3054V34.1818H61.9006V35.9141H62.0156C62.233 35.343 62.5973 34.8913 63.1087 34.5589C63.62 34.2223 64.2401 34.054 64.9688 34.054C65.6506 34.054 66.245 34.2031 66.7521 34.5014C67.2592 34.7997 67.6534 35.2259 67.9347 35.7798C68.2159 36.3295 68.3565 36.9858 68.3565 37.7486V44H65.6335V38.2344C65.6378 37.6335 65.4844 37.1648 65.1733 36.8281C64.8622 36.4872 64.4339 36.3168 63.8885 36.3168C63.522 36.3168 63.1982 36.3956 62.9169 36.5533C62.6399 36.7109 62.4226 36.9411 62.2649 37.2436C62.1115 37.5419 62.0327 37.902 62.0284 38.3239ZM75.725 34.1818V36.2273H69.8123V34.1818H75.725ZM71.1547 31.8295H73.8777V40.983C73.8777 41.2344 73.916 41.4304 73.9927 41.571C74.0694 41.7074 74.176 41.8033 74.3123 41.8587C74.4529 41.9141 74.6149 41.9418 74.7981 41.9418C74.926 41.9418 75.0538 41.9311 75.1816 41.9098C75.3095 41.8842 75.4075 41.8651 75.4757 41.8523L75.9039 43.8786C75.7676 43.9212 75.5758 43.9702 75.3287 44.0256C75.0815 44.0852 74.7811 44.1214 74.4274 44.1342C73.7711 44.1598 73.1958 44.0724 72.7015 43.8722C72.2115 43.6719 71.8301 43.3608 71.5574 42.9389C71.2846 42.517 71.1504 41.9844 71.1547 41.3409V31.8295ZM85.2827 44.1598C84.5369 44.1598 83.8615 43.968 83.2564 43.5845C82.6555 43.1967 82.1783 42.6278 81.8246 41.8778C81.4751 41.1236 81.3004 40.1989 81.3004 39.1037C81.3004 37.9787 81.4815 37.0433 81.8438 36.2976C82.206 35.5476 82.6875 34.9872 83.2884 34.6165C83.8935 34.2415 84.5561 34.054 85.2763 34.054C85.826 34.054 86.2841 34.1477 86.6506 34.3352C87.0213 34.5185 87.3196 34.7486 87.5455 35.0256C87.7756 35.2983 87.9503 35.5668 88.0696 35.831H88.1527V30.9091H90.8693V44H88.1847V42.4276H88.0696C87.9418 42.7003 87.7607 42.9709 87.5263 43.2393C87.2962 43.5036 86.9957 43.723 86.625 43.8977C86.2585 44.0724 85.8111 44.1598 85.2827 44.1598ZM86.1456 41.9929C86.5845 41.9929 86.9553 41.8736 87.2578 41.6349C87.5646 41.392 87.799 41.0533 87.9609 40.6186C88.1271 40.1839 88.2102 39.6747 88.2102 39.0909C88.2102 38.5071 88.1293 38 87.9673 37.5696C87.8054 37.1392 87.571 36.8068 87.2642 36.5724C86.9574 36.3381 86.5845 36.2209 86.1456 36.2209C85.6982 36.2209 85.321 36.3423 85.0142 36.5852C84.7074 36.8281 84.4751 37.1648 84.3175 37.5952C84.1598 38.0256 84.081 38.5241 84.081 39.0909C84.081 39.6619 84.1598 40.1669 84.3175 40.6058C84.4794 41.0405 84.7116 41.3814 85.0142 41.6286C85.321 41.8714 85.6982 41.9929 86.1456 41.9929ZM93.1081 44V34.1818H95.8311V44H93.1081ZM94.476 32.9162C94.0712 32.9162 93.7239 32.782 93.4341 32.5135C93.1486 32.2408 93.0059 31.9148 93.0059 31.5355C93.0059 31.1605 93.1486 30.8388 93.4341 30.5703C93.7239 30.2976 94.0712 30.1612 94.476 30.1612C94.8809 30.1612 95.226 30.2976 95.5115 30.5703C95.8013 30.8388 95.9462 31.1605 95.9462 31.5355C95.9462 31.9148 95.8013 32.2408 95.5115 32.5135C95.226 32.782 94.8809 32.9162 94.476 32.9162ZM106.181 36.9815L103.689 37.1349C103.646 36.9219 103.554 36.7301 103.414 36.5597C103.273 36.3849 103.088 36.2464 102.858 36.1442C102.632 36.0376 102.361 35.9844 102.046 35.9844C101.624 35.9844 101.268 36.0739 100.978 36.2528C100.689 36.4276 100.544 36.6619 100.544 36.956C100.544 37.1903 100.637 37.3885 100.825 37.5504C101.012 37.7124 101.334 37.8423 101.79 37.9403L103.567 38.2983C104.522 38.4943 105.233 38.8097 105.702 39.2443C106.171 39.679 106.405 40.25 106.405 40.9574C106.405 41.6009 106.216 42.1655 105.836 42.6513C105.461 43.1371 104.946 43.5163 104.289 43.7891C103.637 44.0575 102.885 44.1918 102.033 44.1918C100.733 44.1918 99.6978 43.9212 98.9265 43.38C98.1594 42.8345 97.7099 42.093 97.5778 41.1555L100.256 41.0149C100.337 41.4112 100.533 41.7138 100.844 41.9226C101.155 42.1271 101.554 42.2294 102.039 42.2294C102.517 42.2294 102.9 42.1378 103.19 41.9545C103.484 41.767 103.633 41.5263 103.637 41.2322C103.633 40.9851 103.529 40.7827 103.324 40.625C103.12 40.4631 102.804 40.3395 102.378 40.2543L100.678 39.9155C99.7191 39.7237 99.0053 39.3913 98.5366 38.9183C98.0721 38.4453 97.8398 37.8423 97.8398 37.1094C97.8398 36.4787 98.0103 35.9354 98.3512 35.4794C98.6964 35.0234 99.18 34.6719 99.8022 34.4247C100.429 34.1776 101.162 34.054 102.001 34.054C103.241 34.054 104.217 34.3161 104.929 34.8402C105.645 35.3643 106.062 36.0781 106.181 36.9815ZM108.171 44V30.9091H110.894V35.831H110.977C111.096 35.5668 111.269 35.2983 111.495 35.0256C111.725 34.7486 112.023 34.5185 112.39 34.3352C112.76 34.1477 113.221 34.054 113.77 34.054C114.486 34.054 115.147 34.2415 115.752 34.6165C116.357 34.9872 116.841 35.5476 117.203 36.2976C117.565 37.0433 117.746 37.9787 117.746 39.1037C117.746 40.1989 117.569 41.1236 117.216 41.8778C116.866 42.6278 116.389 43.1967 115.784 43.5845C115.183 43.968 114.51 44.1598 113.764 44.1598C113.236 44.1598 112.786 44.0724 112.415 43.8977C112.049 43.723 111.748 43.5036 111.514 43.2393C111.28 42.9709 111.101 42.7003 110.977 42.4276H110.856V44H108.171ZM110.836 39.0909C110.836 39.6747 110.917 40.1839 111.079 40.6186C111.241 41.0533 111.476 41.392 111.782 41.6349C112.089 41.8736 112.462 41.9929 112.901 41.9929C113.344 41.9929 113.719 41.8714 114.026 41.6286C114.333 41.3814 114.565 41.0405 114.723 40.6058C114.885 40.1669 114.966 39.6619 114.966 39.0909C114.966 38.5241 114.887 38.0256 114.729 37.5952C114.572 37.1648 114.339 36.8281 114.032 36.5852C113.726 36.3423 113.349 36.2209 112.901 36.2209C112.458 36.2209 112.083 36.3381 111.776 36.5724C111.474 36.8068 111.241 37.1392 111.079 37.5696C110.917 38 110.836 38.5071 110.836 39.0909ZM125.859 39.8196V34.1818H128.582V44H125.968V42.2166H125.866C125.644 42.7919 125.276 43.2543 124.76 43.6037C124.249 43.9531 123.624 44.1278 122.887 44.1278C122.231 44.1278 121.653 43.9787 121.155 43.6804C120.656 43.3821 120.266 42.9581 119.985 42.4084C119.708 41.8587 119.567 41.2003 119.563 40.4332V34.1818H122.286V39.9474C122.29 40.527 122.446 40.9851 122.753 41.3217C123.06 41.6584 123.471 41.8267 123.987 41.8267C124.315 41.8267 124.621 41.7521 124.907 41.603C125.192 41.4496 125.423 41.2237 125.597 40.9254C125.776 40.6271 125.864 40.2585 125.859 39.8196ZM130.76 44V34.1818H133.4V35.8949H133.503C133.682 35.2855 133.982 34.8253 134.404 34.5142C134.826 34.1989 135.312 34.0412 135.861 34.0412C135.998 34.0412 136.145 34.0497 136.302 34.0668C136.46 34.0838 136.599 34.1072 136.718 34.1371V36.5533C136.59 36.5149 136.413 36.4808 136.187 36.451C135.961 36.4212 135.755 36.4062 135.567 36.4062C135.167 36.4062 134.809 36.4936 134.493 36.6683C134.182 36.8388 133.935 37.0774 133.752 37.3842C133.573 37.6911 133.483 38.0447 133.483 38.4453V44H130.76ZM146.295 36.9815L143.802 37.1349C143.759 36.9219 143.668 36.7301 143.527 36.5597C143.386 36.3849 143.201 36.2464 142.971 36.1442C142.745 36.0376 142.474 35.9844 142.159 35.9844C141.737 35.9844 141.381 36.0739 141.092 36.2528C140.802 36.4276 140.657 36.6619 140.657 36.956C140.657 37.1903 140.751 37.3885 140.938 37.5504C141.126 37.7124 141.447 37.8423 141.903 37.9403L143.68 38.2983C144.635 38.4943 145.347 38.8097 145.815 39.2443C146.284 39.679 146.518 40.25 146.518 40.9574C146.518 41.6009 146.329 42.1655 145.95 42.6513C145.575 43.1371 145.059 43.5163 144.403 43.7891C143.751 44.0575 142.999 44.1918 142.146 44.1918C140.847 44.1918 139.811 43.9212 139.04 43.38C138.273 42.8345 137.823 42.093 137.691 41.1555L140.369 41.0149C140.45 41.4112 140.646 41.7138 140.957 41.9226C141.268 42.1271 141.667 42.2294 142.153 42.2294C142.63 42.2294 143.013 42.1378 143.303 41.9545C143.597 41.767 143.746 41.5263 143.751 41.2322C143.746 40.9851 143.642 40.7827 143.438 40.625C143.233 40.4631 142.918 40.3395 142.491 40.2543L140.791 39.9155C139.832 39.7237 139.119 39.3913 138.65 38.9183C138.185 38.4453 137.953 37.8423 137.953 37.1094C137.953 36.4787 138.124 35.9354 138.464 35.4794C138.81 35.0234 139.293 34.6719 139.915 34.4247C140.542 34.1776 141.275 34.054 142.114 34.054C143.354 34.054 144.33 34.3161 145.042 34.8402C145.758 35.3643 146.175 36.0781 146.295 36.9815ZM152.708 44.1918C151.698 44.1918 150.828 43.9872 150.1 43.5781C149.375 43.1648 148.817 42.581 148.425 41.8267C148.033 41.0682 147.837 40.1712 147.837 39.1357C147.837 38.1257 148.033 37.2393 148.425 36.4766C148.817 35.7138 149.369 35.1193 150.08 34.6932C150.796 34.267 151.636 34.054 152.599 34.054C153.247 34.054 153.85 34.1584 154.408 34.3672C154.97 34.5717 155.46 34.8807 155.878 35.294C156.3 35.7074 156.628 36.2273 156.862 36.8537C157.097 37.4759 157.214 38.2045 157.214 39.0398V39.7876H148.923V38.1001H154.651C154.651 37.7081 154.566 37.3608 154.395 37.0582C154.225 36.7557 153.988 36.5192 153.686 36.3487C153.387 36.174 153.04 36.0866 152.644 36.0866C152.23 36.0866 151.864 36.1825 151.544 36.3743C151.229 36.5618 150.982 36.8153 150.803 37.1349C150.624 37.4503 150.532 37.8018 150.528 38.1896V39.794C150.528 40.2798 150.617 40.6996 150.796 41.0533C150.98 41.407 151.237 41.6797 151.57 41.8714C151.902 42.0632 152.296 42.1591 152.752 42.1591C153.055 42.1591 153.332 42.1165 153.583 42.0312C153.835 41.946 154.05 41.8182 154.229 41.6477C154.408 41.4773 154.544 41.2685 154.638 41.0213L157.156 41.1875C157.029 41.7926 156.767 42.321 156.37 42.7727C155.978 43.2202 155.471 43.5696 154.849 43.821C154.231 44.0682 153.517 44.1918 152.708 44.1918ZM158.991 44V34.1818H161.586V35.9141H161.701C161.906 35.3388 162.247 34.8849 162.724 34.5526C163.201 34.2202 163.772 34.054 164.437 34.054C165.11 34.054 165.683 34.2223 166.156 34.5589C166.629 34.8913 166.945 35.343 167.102 35.9141H167.205C167.405 35.3516 167.767 34.902 168.291 34.5653C168.82 34.2244 169.444 34.054 170.164 34.054C171.08 34.054 171.824 34.3459 172.395 34.9297C172.97 35.5092 173.258 36.3317 173.258 37.397V44H170.541V37.9339C170.541 37.3885 170.396 36.9794 170.107 36.7067C169.817 36.4339 169.455 36.2976 169.02 36.2976C168.526 36.2976 168.14 36.4553 167.863 36.7706C167.586 37.0817 167.448 37.4929 167.448 38.0043V44H164.808V37.8764C164.808 37.3949 164.669 37.0114 164.392 36.7259C164.119 36.4403 163.759 36.2976 163.312 36.2976C163.009 36.2976 162.737 36.3743 162.494 36.5277C162.255 36.6768 162.066 36.8878 161.925 37.1605C161.784 37.429 161.714 37.7443 161.714 38.1065V44H158.991ZM179.883 44.1918C178.873 44.1918 178.004 43.9872 177.275 43.5781C176.551 43.1648 175.993 42.581 175.601 41.8267C175.209 41.0682 175.013 40.1712 175.013 39.1357C175.013 38.1257 175.209 37.2393 175.601 36.4766C175.993 35.7138 176.545 35.1193 177.256 34.6932C177.972 34.267 178.812 34.054 179.775 34.054C180.422 34.054 181.025 34.1584 181.584 34.3672C182.146 34.5717 182.636 34.8807 183.054 35.294C183.476 35.7074 183.804 36.2273 184.038 36.8537C184.273 37.4759 184.39 38.2045 184.39 39.0398V39.7876H176.099V38.1001H181.827C181.827 37.7081 181.741 37.3608 181.571 37.0582C181.4 36.7557 181.164 36.5192 180.861 36.3487C180.563 36.174 180.216 36.0866 179.819 36.0866C179.406 36.0866 179.04 36.1825 178.72 36.3743C178.405 36.5618 178.157 36.8153 177.979 37.1349C177.8 37.4503 177.708 37.8018 177.704 38.1896V39.794C177.704 40.2798 177.793 40.6996 177.972 41.0533C178.155 41.407 178.413 41.6797 178.746 41.8714C179.078 42.0632 179.472 42.1591 179.928 42.1591C180.231 42.1591 180.508 42.1165 180.759 42.0312C181.01 41.946 181.226 41.8182 181.405 41.6477C181.584 41.4773 181.72 41.2685 181.814 41.0213L184.332 41.1875C184.204 41.7926 183.942 42.321 183.546 42.7727C183.154 43.2202 182.647 43.5696 182.025 43.821C181.407 44.0682 180.693 44.1918 179.883 44.1918ZM188.89 38.3239V44H186.167V34.1818H188.762V35.9141H188.877C189.094 35.343 189.459 34.8913 189.97 34.5589C190.481 34.2223 191.101 34.054 191.83 34.054C192.512 34.054 193.106 34.2031 193.613 34.5014C194.121 34.7997 194.515 35.2259 194.796 35.7798C195.077 36.3295 195.218 36.9858 195.218 37.7486V44H192.495V38.2344C192.499 37.6335 192.346 37.1648 192.035 36.8281C191.724 36.4872 191.295 36.3168 190.75 36.3168C190.383 36.3168 190.059 36.3956 189.778 36.5533C189.501 36.7109 189.284 36.9411 189.126 37.2436C188.973 37.5419 188.894 37.902 188.89 38.3239ZM202.586 34.1818V36.2273H196.674V34.1818H202.586ZM198.016 31.8295H200.739V40.983C200.739 41.2344 200.777 41.4304 200.854 41.571C200.931 41.7074 201.037 41.8033 201.174 41.8587C201.314 41.9141 201.476 41.9418 201.659 41.9418C201.787 41.9418 201.915 41.9311 202.043 41.9098C202.171 41.8842 202.269 41.8651 202.337 41.8523L202.765 43.8786C202.629 43.9212 202.437 43.9702 202.19 44.0256C201.943 44.0852 201.642 44.1214 201.289 44.1342C200.632 44.1598 200.057 44.0724 199.563 43.8722C199.073 43.6719 198.691 43.3608 198.419 42.9389C198.146 42.517 198.012 41.9844 198.016 41.3409V31.8295Z" fill="#343A40"/>
<line x1="83.5" y1="82" x2="83.5" y2="380" stroke="#E9ECEF"/>
<line x1="83" y1="379.5" x2="734" y2="379.5" stroke="#E9ECEF"/>
<path d="M47.8011 107.119C47.4432 107.114 47.0852 107.045 46.7273 106.915C46.3693 106.784 46.0426 106.564 45.7472 106.254C45.4517 105.942 45.2145 105.52 45.0355 104.989C44.8565 104.455 44.767 103.784 44.767 102.977C44.767 102.205 44.8395 101.52 44.9844 100.923C45.1293 100.324 45.3395 99.8196 45.6151 99.4105C45.8906 98.9986 46.223 98.6861 46.6122 98.473C47.0043 98.2599 47.446 98.1534 47.9375 98.1534C48.4261 98.1534 48.8608 98.2514 49.2415 98.4474C49.625 98.6406 49.9375 98.9105 50.179 99.2571C50.4205 99.6037 50.5767 100.003 50.6477 100.455H49.608C49.5114 100.062 49.3239 99.7372 49.0455 99.4787C48.767 99.2202 48.3977 99.0909 47.9375 99.0909C47.2614 99.0909 46.7287 99.3849 46.3395 99.973C45.9531 100.561 45.7585 101.386 45.7557 102.449H45.8239C45.983 102.207 46.1719 102.001 46.3906 101.831C46.6122 101.658 46.8565 101.524 47.1236 101.43C47.3906 101.337 47.6733 101.29 47.9716 101.29C48.4716 101.29 48.929 101.415 49.3438 101.665C49.7585 101.912 50.0909 102.254 50.3409 102.692C50.5909 103.126 50.7159 103.625 50.7159 104.188C50.7159 104.727 50.5952 105.222 50.3537 105.67C50.1122 106.116 49.7727 106.472 49.3352 106.736C48.9006 106.997 48.3892 107.125 47.8011 107.119ZM47.8011 106.182C48.1591 106.182 48.4801 106.092 48.7642 105.913C49.0511 105.734 49.277 105.494 49.4418 105.193C49.6094 104.892 49.6932 104.557 49.6932 104.188C49.6932 103.827 49.6122 103.499 49.4503 103.203C49.2912 102.905 49.071 102.668 48.7898 102.491C48.5114 102.315 48.1932 102.227 47.8352 102.227C47.5653 102.227 47.3139 102.281 47.081 102.389C46.848 102.494 46.6435 102.639 46.4673 102.824C46.294 103.009 46.1577 103.22 46.0582 103.459C45.9588 103.695 45.9091 103.943 45.9091 104.205C45.9091 104.551 45.9901 104.875 46.152 105.176C46.3168 105.477 46.5412 105.72 46.8253 105.905C47.1122 106.089 47.4375 106.182 47.8011 106.182ZM52.5451 98.2727H53.8065L56.7724 105.517H56.8746L59.8406 98.2727H61.1019V107H60.1133V100.369H60.0281L57.3008 107H56.3462L53.619 100.369H53.5337V107H52.5451V98.2727Z" fill="#ADB5BD"/>
<path d="M47.6307 154.119C47.1307 154.119 46.6804 154.02 46.2798 153.821C45.8793 153.622 45.5582 153.349 45.3168 153.003C45.0753 152.656 44.9432 152.261 44.9205 151.818H45.9432C45.983 152.213 46.1619 152.54 46.4801 152.798C46.8011 153.054 47.1847 153.182 47.6307 153.182C47.9886 153.182 48.3068 153.098 48.5852 152.93C48.8665 152.763 49.0866 152.533 49.2457 152.24C49.4077 151.945 49.4886 151.611 49.4886 151.239C49.4886 150.858 49.4048 150.518 49.2372 150.22C49.0724 149.919 48.8452 149.682 48.5554 149.509C48.2656 149.335 47.9347 149.247 47.5625 149.244C47.2955 149.241 47.0213 149.283 46.7401 149.368C46.4588 149.45 46.2273 149.557 46.0455 149.688L45.0568 149.568L45.5852 145.273H50.1193V146.21H46.4716L46.1648 148.784H46.2159C46.3949 148.642 46.6193 148.524 46.8892 148.43C47.1591 148.337 47.4403 148.29 47.733 148.29C48.267 148.29 48.7429 148.418 49.1605 148.673C49.581 148.926 49.9105 149.273 50.1491 149.713C50.3906 150.153 50.5114 150.656 50.5114 151.222C50.5114 151.778 50.3864 152.276 50.1364 152.713C49.8892 153.148 49.5483 153.491 49.1136 153.744C48.679 153.994 48.1847 154.119 47.6307 154.119ZM52.3576 145.273H53.619L56.5849 152.517H56.6871L59.6531 145.273H60.9144V154H59.9258V147.369H59.8406L57.1133 154H56.1587L53.4315 147.369H53.3462V154H52.3576V145.273Z" fill="#ADB5BD"/>
<path d="M44.6989 199.21V198.341L48.5341 192.273H49.1648V193.619H48.7386L45.8409 198.205V198.273H51.0057V199.21H44.6989ZM48.8068 201V198.946V198.541V192.273H49.8125V201H48.8068ZM52.756 192.273H54.0174L56.9833 199.517H57.0856L60.0515 192.273H61.3129V201H60.3242V194.369H60.239L57.5117 201H56.5572L53.8299 194.369H53.7447V201H52.756V192.273Z" fill="#ADB5BD"/>
<path d="M47.8523 248.119C47.2898 248.119 46.7884 248.023 46.348 247.83C45.9105 247.636 45.5625 247.368 45.304 247.024C45.0483 246.678 44.9091 246.276 44.8864 245.818H45.9602C45.983 246.099 46.0795 246.342 46.25 246.547C46.4205 246.749 46.6435 246.905 46.919 247.016C47.1946 247.126 47.5 247.182 47.8352 247.182C48.2102 247.182 48.5426 247.116 48.8324 246.986C49.1222 246.855 49.3494 246.673 49.5142 246.44C49.679 246.207 49.7614 245.938 49.7614 245.631C49.7614 245.31 49.6818 245.027 49.5227 244.783C49.3636 244.536 49.1307 244.342 48.8239 244.203C48.517 244.064 48.142 243.994 47.6989 243.994H47V243.057H47.6989C48.0455 243.057 48.3494 242.994 48.6108 242.869C48.875 242.744 49.081 242.568 49.2287 242.341C49.3793 242.114 49.4545 241.847 49.4545 241.54C49.4545 241.244 49.3892 240.987 49.2585 240.768C49.1278 240.55 48.9432 240.379 48.7045 240.257C48.4688 240.135 48.1903 240.074 47.8693 240.074C47.5682 240.074 47.2841 240.129 47.017 240.24C46.7528 240.348 46.5369 240.506 46.3693 240.713C46.2017 240.918 46.1108 241.165 46.0966 241.455H45.0739C45.0909 240.997 45.2287 240.597 45.4872 240.253C45.7457 239.906 46.0838 239.636 46.5014 239.443C46.9219 239.25 47.3835 239.153 47.8864 239.153C48.4261 239.153 48.8892 239.263 49.2756 239.482C49.6619 239.697 49.9588 239.983 50.1662 240.338C50.3736 240.693 50.4773 241.077 50.4773 241.489C50.4773 241.98 50.348 242.399 50.0895 242.746C49.8338 243.092 49.4858 243.332 49.0455 243.466V243.534C49.5966 243.625 50.027 243.859 50.3366 244.237C50.6463 244.612 50.8011 245.077 50.8011 245.631C50.8011 246.105 50.6719 246.531 50.4134 246.909C50.1577 247.284 49.8082 247.58 49.3651 247.795C48.9219 248.011 48.4176 248.119 47.8523 248.119ZM52.6974 239.273H53.9588L56.9247 246.517H57.027L59.9929 239.273H61.2543V248H60.2656V241.369H60.1804L57.4531 248H56.4986L53.7713 241.369H53.6861V248H52.6974V239.273Z" fill="#ADB5BD"/>
<path d="M44.9034 295V294.233L47.7841 291.08C48.1222 290.71 48.4006 290.389 48.6193 290.116C48.8381 289.841 49 289.582 49.1051 289.341C49.2131 289.097 49.267 288.841 49.267 288.574C49.267 288.267 49.1932 288.001 49.0455 287.777C48.9006 287.553 48.7017 287.379 48.4489 287.257C48.196 287.135 47.9119 287.074 47.5966 287.074C47.2614 287.074 46.9688 287.143 46.7188 287.283C46.4716 287.419 46.2798 287.611 46.1435 287.858C46.0099 288.105 45.9432 288.395 45.9432 288.727H44.9375C44.9375 288.216 45.0554 287.767 45.2912 287.381C45.527 286.994 45.848 286.693 46.2543 286.477C46.6634 286.261 47.1222 286.153 47.6307 286.153C48.142 286.153 48.5952 286.261 48.9901 286.477C49.3849 286.693 49.6946 286.984 49.919 287.351C50.1435 287.717 50.2557 288.125 50.2557 288.574C50.2557 288.895 50.1974 289.209 50.081 289.516C49.9673 289.82 49.7685 290.159 49.4844 290.534C49.2031 290.906 48.8125 291.361 48.3125 291.898L46.3523 293.994V294.062H50.4091V295H44.9034ZM52.3224 286.273H53.5838L56.5497 293.517H56.652L59.6179 286.273H60.8793V295H59.8906V288.369H59.8054L57.0781 295H56.1236L53.3963 288.369H53.3111V295H52.3224V286.273Z" fill="#ADB5BD"/>
<path d="M47.9716 333.273V342H46.9148V334.381H46.8636L44.733 335.795V334.722L46.9148 333.273H47.9716ZM50.6349 333.273H51.8963L54.8622 340.517H54.9645L57.9304 333.273H59.1918V342H58.2031V335.369H58.1179L55.3906 342H54.4361L51.7088 335.369H51.6236V342H50.6349V333.273Z" fill="#ADB5BD"/>
<path d="M132.057 399.273H133.318L136.284 406.517H136.386L139.352 399.273H140.614V408H139.625V401.369H139.54L136.812 408H135.858L133.131 401.369H133.045V408H132.057V399.273ZM145.255 408.136C144.664 408.136 144.146 407.996 143.7 407.714C143.257 407.433 142.91 407.04 142.66 406.534C142.413 406.028 142.289 405.437 142.289 404.761C142.289 404.08 142.413 403.484 142.66 402.976C142.91 402.467 143.257 402.072 143.7 401.791C144.146 401.51 144.664 401.369 145.255 401.369C145.846 401.369 146.363 401.51 146.806 401.791C147.252 402.072 147.599 402.467 147.846 402.976C148.096 403.484 148.221 404.08 148.221 404.761C148.221 405.437 148.096 406.028 147.846 406.534C147.599 407.04 147.252 407.433 146.806 407.714C146.363 407.996 145.846 408.136 145.255 408.136ZM145.255 407.233C145.704 407.233 146.074 407.118 146.363 406.888C146.653 406.658 146.868 406.355 147.007 405.98C147.146 405.605 147.216 405.199 147.216 404.761C147.216 404.324 147.146 403.916 147.007 403.538C146.868 403.161 146.653 402.855 146.363 402.622C146.074 402.389 145.704 402.273 145.255 402.273C144.806 402.273 144.437 402.389 144.147 402.622C143.858 402.855 143.643 403.161 143.504 403.538C143.365 403.916 143.295 404.324 143.295 404.761C143.295 405.199 143.365 405.605 143.504 405.98C143.643 406.355 143.858 406.658 144.147 406.888C144.437 407.118 144.806 407.233 145.255 407.233ZM150.762 404.062V408H149.756V401.455H150.728V402.477H150.813C150.967 402.145 151.2 401.878 151.512 401.676C151.825 401.472 152.228 401.369 152.722 401.369C153.165 401.369 153.553 401.46 153.886 401.642C154.218 401.821 154.477 402.094 154.661 402.46C154.846 402.824 154.938 403.284 154.938 403.841V408H153.933V403.909C153.933 403.395 153.799 402.994 153.532 402.707C153.265 402.418 152.898 402.273 152.433 402.273C152.112 402.273 151.825 402.342 151.572 402.482C151.322 402.621 151.124 402.824 150.979 403.091C150.835 403.358 150.762 403.682 150.762 404.062Z" fill="#ADB5BD"/>
<path d="M228.58 400.21V399.273H235.125V400.21H232.381V408H231.324V400.21H228.58ZM239.854 405.324V401.455H240.86V408H239.854V406.892H239.786C239.632 407.224 239.394 407.507 239.07 407.74C238.746 407.97 238.337 408.085 237.843 408.085C237.434 408.085 237.07 407.996 236.752 407.817C236.434 407.635 236.184 407.362 236.002 406.999C235.82 406.632 235.729 406.17 235.729 405.614V401.455H236.735V405.545C236.735 406.023 236.868 406.403 237.135 406.688C237.405 406.972 237.749 407.114 238.167 407.114C238.417 407.114 238.671 407.05 238.929 406.922C239.191 406.794 239.409 406.598 239.586 406.334C239.765 406.07 239.854 405.733 239.854 405.324ZM245.446 408.136C244.815 408.136 244.271 407.997 243.814 407.719C243.359 407.438 243.009 407.045 242.761 406.543C242.517 406.037 242.395 405.449 242.395 404.778C242.395 404.108 242.517 403.517 242.761 403.006C243.009 402.491 243.352 402.091 243.793 401.804C244.236 401.514 244.753 401.369 245.344 401.369C245.685 401.369 246.021 401.426 246.354 401.54C246.686 401.653 246.989 401.838 247.261 402.094C247.534 402.347 247.751 402.682 247.913 403.099C248.075 403.517 248.156 404.031 248.156 404.642V405.068H243.111V404.199H247.134C247.134 403.83 247.06 403.5 246.912 403.21C246.767 402.92 246.56 402.692 246.29 402.524C246.023 402.357 245.707 402.273 245.344 402.273C244.943 402.273 244.597 402.372 244.304 402.571C244.014 402.767 243.791 403.023 243.635 403.338C243.479 403.653 243.401 403.991 243.401 404.352V404.932C243.401 405.426 243.486 405.845 243.656 406.189C243.83 406.53 244.07 406.79 244.376 406.969C244.683 407.145 245.04 407.233 245.446 407.233C245.71 407.233 245.949 407.196 246.162 407.122C246.378 407.045 246.564 406.932 246.72 406.781C246.876 406.628 246.997 406.437 247.082 406.21L248.054 406.483C247.952 406.812 247.78 407.102 247.538 407.352C247.297 407.599 246.999 407.793 246.643 407.932C246.288 408.068 245.889 408.136 245.446 408.136Z" fill="#ADB5BD"/>
<path d="M323.642 408L321.256 399.273H322.33L324.153 406.381H324.239L326.097 399.273H327.29L329.148 406.381H329.233L331.057 399.273H332.131L329.744 408H328.653L326.727 401.045H326.659L324.733 408H323.642ZM335.446 408.136C334.815 408.136 334.271 407.997 333.814 407.719C333.359 407.438 333.009 407.045 332.761 406.543C332.517 406.037 332.395 405.449 332.395 404.778C332.395 404.108 332.517 403.517 332.761 403.006C333.009 402.491 333.352 402.091 333.793 401.804C334.236 401.514 334.753 401.369 335.344 401.369C335.685 401.369 336.021 401.426 336.354 401.54C336.686 401.653 336.989 401.838 337.261 402.094C337.534 402.347 337.751 402.682 337.913 403.099C338.075 403.517 338.156 404.031 338.156 404.642V405.068H333.111V404.199H337.134C337.134 403.83 337.06 403.5 336.912 403.21C336.767 402.92 336.56 402.692 336.29 402.524C336.023 402.357 335.707 402.273 335.344 402.273C334.943 402.273 334.597 402.372 334.304 402.571C334.014 402.767 333.791 403.023 333.635 403.338C333.479 403.653 333.401 403.991 333.401 404.352V404.932C333.401 405.426 333.486 405.845 333.656 406.189C333.83 406.53 334.07 406.79 334.376 406.969C334.683 407.145 335.04 407.233 335.446 407.233C335.71 407.233 335.949 407.196 336.162 407.122C336.378 407.045 336.564 406.932 336.72 406.781C336.876 406.628 336.997 406.437 337.082 406.21L338.054 406.483C337.952 406.812 337.78 407.102 337.538 407.352C337.297 407.599 336.999 407.793 336.643 407.932C336.288 408.068 335.889 408.136 335.446 408.136ZM342.158 408.136C341.612 408.136 341.131 407.999 340.713 407.723C340.295 407.445 339.969 407.053 339.733 406.547C339.497 406.038 339.379 405.438 339.379 404.744C339.379 404.057 339.497 403.46 339.733 402.955C339.969 402.449 340.297 402.058 340.717 401.783C341.138 401.507 341.624 401.369 342.175 401.369C342.601 401.369 342.938 401.44 343.185 401.582C343.435 401.722 343.625 401.881 343.756 402.06C343.889 402.236 343.993 402.381 344.067 402.494H344.152V399.273H345.158V408H344.186V406.994H344.067C343.993 407.114 343.888 407.264 343.751 407.446C343.615 407.625 343.42 407.786 343.168 407.928C342.915 408.067 342.578 408.136 342.158 408.136ZM342.294 407.233C342.697 407.233 343.038 407.128 343.317 406.918C343.595 406.705 343.807 406.411 343.952 406.036C344.097 405.658 344.169 405.222 344.169 404.727C344.169 404.239 344.098 403.811 343.956 403.445C343.814 403.075 343.604 402.788 343.325 402.584C343.047 402.376 342.703 402.273 342.294 402.273C341.868 402.273 341.513 402.382 341.229 402.601C340.947 402.817 340.736 403.111 340.594 403.483C340.455 403.852 340.385 404.267 340.385 404.727C340.385 405.193 340.456 405.616 340.598 405.997C340.743 406.375 340.956 406.676 341.237 406.901C341.521 407.122 341.874 407.233 342.294 407.233Z" fill="#ADB5BD"/>
<path d="M419.58 400.21V399.273H426.125V400.21H423.381V408H422.324V400.21H419.58ZM428.625 404.062V408H427.62V399.273H428.625V402.477H428.711C428.864 402.139 429.094 401.871 429.401 401.672C429.711 401.47 430.123 401.369 430.637 401.369C431.083 401.369 431.473 401.459 431.809 401.638C432.144 401.814 432.404 402.085 432.588 402.452C432.776 402.815 432.87 403.278 432.87 403.841V408H431.864V403.909C431.864 403.389 431.729 402.987 431.459 402.703C431.192 402.416 430.821 402.273 430.347 402.273C430.017 402.273 429.722 402.342 429.461 402.482C429.202 402.621 428.998 402.824 428.847 403.091C428.699 403.358 428.625 403.682 428.625 404.062ZM438.835 405.324V401.455H439.84V408H438.835V406.892H438.766C438.613 407.224 438.374 407.507 438.05 407.74C437.727 407.97 437.317 408.085 436.823 408.085C436.414 408.085 436.05 407.996 435.732 407.817C435.414 407.635 435.164 407.362 434.982 406.999C434.8 406.632 434.71 406.17 434.71 405.614V401.455H435.715V405.545C435.715 406.023 435.849 406.403 436.116 406.688C436.386 406.972 436.729 407.114 437.147 407.114C437.397 407.114 437.651 407.05 437.91 406.922C438.171 406.794 438.39 406.598 438.566 406.334C438.745 406.07 438.835 405.733 438.835 405.324Z" fill="#ADB5BD"/>
<path d="M514.057 408V399.273H519.29V400.21H515.114V403.159H518.898V404.097H515.114V408H514.057ZM520.893 408V401.455H521.865V402.443H521.933C522.052 402.119 522.268 401.857 522.581 401.655C522.893 401.453 523.245 401.352 523.637 401.352C523.711 401.352 523.804 401.354 523.914 401.357C524.025 401.359 524.109 401.364 524.166 401.369V402.392C524.132 402.384 524.054 402.371 523.931 402.354C523.812 402.334 523.686 402.324 523.552 402.324C523.234 402.324 522.95 402.391 522.7 402.524C522.453 402.655 522.257 402.837 522.112 403.07C521.97 403.3 521.899 403.562 521.899 403.858V408H520.893ZM525.358 408V401.455H526.364V408H525.358ZM525.869 400.364C525.673 400.364 525.504 400.297 525.362 400.163C525.223 400.03 525.153 399.869 525.153 399.682C525.153 399.494 525.223 399.334 525.362 399.2C525.504 399.067 525.673 399 525.869 399C526.065 399 526.233 399.067 526.372 399.2C526.514 399.334 526.585 399.494 526.585 399.682C526.585 399.869 526.514 400.03 526.372 400.163C526.233 400.297 526.065 400.364 525.869 400.364Z" fill="#ADB5BD"/>
<path d="M605.83 401.455C605.778 401.023 605.571 400.688 605.207 400.449C604.844 400.21 604.398 400.091 603.869 400.091C603.483 400.091 603.145 400.153 602.855 400.278C602.568 400.403 602.344 400.575 602.182 400.794C602.023 401.013 601.943 401.261 601.943 401.54C601.943 401.773 601.999 401.973 602.109 402.141C602.223 402.305 602.368 402.443 602.544 402.554C602.72 402.662 602.905 402.751 603.098 402.822C603.291 402.891 603.469 402.946 603.631 402.989L604.517 403.227C604.744 403.287 604.997 403.369 605.276 403.474C605.557 403.58 605.825 403.723 606.081 403.905C606.339 404.084 606.553 404.314 606.72 404.595C606.888 404.876 606.972 405.222 606.972 405.631C606.972 406.102 606.848 406.528 606.601 406.909C606.357 407.29 605.999 407.592 605.527 407.817C605.058 408.041 604.489 408.153 603.818 408.153C603.193 408.153 602.652 408.053 602.195 407.851C601.74 407.649 601.382 407.368 601.121 407.007C600.862 406.646 600.716 406.227 600.682 405.75H601.773C601.801 406.08 601.912 406.352 602.105 406.568C602.301 406.781 602.548 406.94 602.847 407.045C603.148 407.148 603.472 407.199 603.818 407.199C604.222 407.199 604.584 407.134 604.905 407.003C605.226 406.869 605.48 406.685 605.668 406.449C605.855 406.21 605.949 405.932 605.949 405.614C605.949 405.324 605.868 405.088 605.706 404.906C605.544 404.724 605.331 404.577 605.067 404.463C604.803 404.349 604.517 404.25 604.21 404.165L603.136 403.858C602.455 403.662 601.915 403.382 601.517 403.018C601.119 402.655 600.92 402.179 600.92 401.591C600.92 401.102 601.053 400.676 601.317 400.312C601.584 399.946 601.942 399.662 602.391 399.46C602.842 399.256 603.347 399.153 603.903 399.153C604.466 399.153 604.966 399.254 605.403 399.456C605.841 399.655 606.188 399.928 606.443 400.274C606.702 400.621 606.838 401.014 606.852 401.455H605.83ZM610.499 408.153C610.084 408.153 609.708 408.075 609.37 407.919C609.032 407.76 608.763 407.531 608.564 407.233C608.365 406.932 608.266 406.568 608.266 406.142C608.266 405.767 608.34 405.463 608.488 405.23C608.635 404.994 608.833 404.81 609.08 404.676C609.327 404.543 609.6 404.443 609.898 404.378C610.199 404.31 610.502 404.256 610.806 404.216C611.203 404.165 611.526 404.126 611.773 404.101C612.023 404.072 612.205 404.026 612.319 403.96C612.435 403.895 612.493 403.781 612.493 403.619V403.585C612.493 403.165 612.378 402.838 612.148 402.605C611.921 402.372 611.576 402.256 611.113 402.256C610.632 402.256 610.256 402.361 609.983 402.571C609.711 402.781 609.519 403.006 609.408 403.244L608.453 402.903C608.624 402.506 608.851 402.196 609.135 401.974C609.422 401.75 609.735 401.594 610.073 401.506C610.414 401.415 610.749 401.369 611.078 401.369C611.289 401.369 611.53 401.395 611.803 401.446C612.078 401.494 612.344 401.595 612.6 401.749C612.858 401.902 613.073 402.134 613.243 402.443C613.414 402.753 613.499 403.168 613.499 403.688V408H612.493V407.114H612.442C612.374 407.256 612.26 407.408 612.101 407.57C611.942 407.732 611.73 407.869 611.466 407.983C611.202 408.097 610.88 408.153 610.499 408.153ZM610.652 407.25C611.05 407.25 611.385 407.172 611.658 407.016C611.934 406.859 612.141 406.658 612.28 406.411C612.422 406.163 612.493 405.903 612.493 405.631V404.71C612.451 404.761 612.357 404.808 612.212 404.851C612.07 404.891 611.905 404.926 611.718 404.957C611.533 404.986 611.353 405.011 611.176 405.034C611.003 405.054 610.863 405.071 610.755 405.085C610.493 405.119 610.249 405.175 610.022 405.251C609.797 405.325 609.615 405.437 609.476 405.588C609.34 405.736 609.272 405.937 609.272 406.193C609.272 406.543 609.401 406.807 609.659 406.986C609.921 407.162 610.252 407.25 610.652 407.25ZM618.181 401.455V402.307H614.789V401.455H618.181ZM615.778 399.886H616.783V406.125C616.783 406.409 616.825 406.622 616.907 406.764C616.992 406.903 617.1 406.997 617.231 407.045C617.364 407.091 617.505 407.114 617.653 407.114C617.763 407.114 617.854 407.108 617.925 407.097C617.996 407.082 618.053 407.071 618.096 407.062L618.3 407.966C618.232 407.991 618.137 408.017 618.015 408.043C617.893 408.071 617.738 408.085 617.55 408.085C617.266 408.085 616.988 408.024 616.715 407.902C616.445 407.78 616.221 407.594 616.042 407.344C615.866 407.094 615.778 406.778 615.778 406.398V399.886Z" fill="#ADB5BD"/>
<path d="M696.83 401.455C696.778 401.023 696.571 400.688 696.207 400.449C695.844 400.21 695.398 400.091 694.869 400.091C694.483 400.091 694.145 400.153 693.855 400.278C693.568 400.403 693.344 400.575 693.182 400.794C693.023 401.013 692.943 401.261 692.943 401.54C692.943 401.773 692.999 401.973 693.109 402.141C693.223 402.305 693.368 402.443 693.544 402.554C693.72 402.662 693.905 402.751 694.098 402.822C694.291 402.891 694.469 402.946 694.631 402.989L695.517 403.227C695.744 403.287 695.997 403.369 696.276 403.474C696.557 403.58 696.825 403.723 697.081 403.905C697.339 404.084 697.553 404.314 697.72 404.595C697.888 404.876 697.972 405.222 697.972 405.631C697.972 406.102 697.848 406.528 697.601 406.909C697.357 407.29 696.999 407.592 696.527 407.817C696.058 408.041 695.489 408.153 694.818 408.153C694.193 408.153 693.652 408.053 693.195 407.851C692.74 407.649 692.382 407.368 692.121 407.007C691.862 406.646 691.716 406.227 691.682 405.75H692.773C692.801 406.08 692.912 406.352 693.105 406.568C693.301 406.781 693.548 406.94 693.847 407.045C694.148 407.148 694.472 407.199 694.818 407.199C695.222 407.199 695.584 407.134 695.905 407.003C696.226 406.869 696.48 406.685 696.668 406.449C696.855 406.21 696.949 405.932 696.949 405.614C696.949 405.324 696.868 405.088 696.706 404.906C696.544 404.724 696.331 404.577 696.067 404.463C695.803 404.349 695.517 404.25 695.21 404.165L694.136 403.858C693.455 403.662 692.915 403.382 692.517 403.018C692.119 402.655 691.92 402.179 691.92 401.591C691.92 401.102 692.053 400.676 692.317 400.312C692.584 399.946 692.942 399.662 693.391 399.46C693.842 399.256 694.347 399.153 694.903 399.153C695.466 399.153 695.966 399.254 696.403 399.456C696.841 399.655 697.188 399.928 697.443 400.274C697.702 400.621 697.838 401.014 697.852 401.455H696.83ZM703.698 405.324V401.455H704.703V408H703.698V406.892H703.63C703.476 407.224 703.238 407.507 702.914 407.74C702.59 407.97 702.181 408.085 701.686 408.085C701.277 408.085 700.914 407.996 700.596 407.817C700.277 407.635 700.027 407.362 699.846 406.999C699.664 406.632 699.573 406.17 699.573 405.614V401.455H700.578V405.545C700.578 406.023 700.712 406.403 700.979 406.688C701.249 406.972 701.593 407.114 702.01 407.114C702.26 407.114 702.515 407.05 702.773 406.922C703.034 406.794 703.253 406.598 703.429 406.334C703.608 406.07 703.698 405.733 703.698 405.324ZM707.551 404.062V408H706.545V401.455H707.517V402.477H707.602C707.756 402.145 707.989 401.878 708.301 401.676C708.614 401.472 709.017 401.369 709.511 401.369C709.955 401.369 710.342 401.46 710.675 401.642C711.007 401.821 711.266 402.094 711.45 402.46C711.635 402.824 711.727 403.284 711.727 403.841V408H710.722V403.909C710.722 403.395 710.588 402.994 710.321 402.707C710.054 402.418 709.688 402.273 709.222 402.273C708.901 402.273 708.614 402.342 708.361 402.482C708.111 402.621 707.913 402.824 707.768 403.091C707.624 403.358 707.551 403.682 707.551 404.062Z" fill="#ADB5BD"/>
<path d="M133 284.5C133 279.806 136.806 276 141.5 276C146.194 276 150 279.806 150 284.5V379H133V284.5Z" fill="#E9ECEF"/>
<path d="M228 243.5C228 238.806 231.806 235 236.5 235C241.194 235 245 238.806 245 243.5V379H228V243.5Z" fill="#E9ECEF"/>
<path d="M323 181.5C323 176.806 326.806 173 331.5 173C336.194 173 340 176.806 340 181.5V379H323V181.5Z" fill="#2D995F"/>
<path d="M418 255.5C418 250.806 421.806 247 426.5 247C431.194 247 435 250.806 435 255.5V379H418V255.5Z" fill="#E9ECEF"/>
<path d="M513 321.5C513 316.806 516.806 313 521.5 313C526.194 313 530 316.806 530 321.5V379H513V321.5Z" fill="#E9ECEF"/>
<path d="M608 199.5C608 194.806 611.806 191 616.5 191C621.194 191 625 194.806 625 199.5V379H608V199.5Z" fill="#E9ECEF"/>
<path d="M703 321.5C703 316.806 706.806 313 711.5 313C716.194 313 720 316.806 720 321.5V379H703V321.5Z" fill="#E9ECEF"/>
<rect x="285" y="103" width="102" height="46" rx="8" fill="#343A40"/>
<path d="M313.863 130.699V128.519L319.328 119.909H321.207V122.926H320.095L316.65 128.379V128.481H324.416V130.699H313.863ZM320.146 133V130.034L320.197 129.069V119.909H322.793V133H320.146ZM327.631 133.166C327.21 133.166 326.847 133.017 326.545 132.719C326.246 132.416 326.097 132.054 326.097 131.632C326.097 131.214 326.246 130.857 326.545 130.558C326.847 130.26 327.21 130.111 327.631 130.111C328.04 130.111 328.398 130.26 328.705 130.558C329.012 130.857 329.165 131.214 329.165 131.632C329.165 131.913 329.093 132.171 328.948 132.406C328.808 132.636 328.622 132.821 328.392 132.962C328.162 133.098 327.908 133.166 327.631 133.166ZM336.051 133.179C335.148 133.179 334.343 133.013 333.635 132.68C332.932 132.348 332.374 131.89 331.96 131.306C331.547 130.722 331.332 130.053 331.315 129.299H333.999C334.029 129.806 334.242 130.217 334.639 130.533C335.035 130.848 335.506 131.006 336.051 131.006C336.486 131.006 336.869 130.91 337.202 130.718C337.539 130.522 337.801 130.251 337.988 129.906C338.18 129.557 338.276 129.156 338.276 128.705C338.276 128.244 338.178 127.839 337.982 127.49C337.79 127.141 337.524 126.868 337.183 126.672C336.842 126.476 336.452 126.376 336.013 126.371C335.629 126.371 335.257 126.45 334.894 126.608C334.536 126.766 334.257 126.981 334.057 127.254L331.596 126.812L332.216 119.909H340.219V122.172H334.498L334.159 125.451H334.236C334.466 125.127 334.813 124.859 335.278 124.646C335.742 124.433 336.262 124.326 336.838 124.326C337.626 124.326 338.329 124.511 338.947 124.882C339.565 125.253 340.053 125.762 340.411 126.41C340.769 127.053 340.945 127.795 340.941 128.634C340.945 129.516 340.741 130.3 340.328 130.987C339.919 131.668 339.345 132.205 338.608 132.597C337.875 132.985 337.023 133.179 336.051 133.179ZM342.948 119.909H346.362L349.967 128.705H350.12L353.725 119.909H357.139V133H354.454V124.479H354.345L350.958 132.936H349.129L345.742 124.447H345.633V133H342.948V119.909Z" fill="white"/>
<path d="M331.5 160L319.809 139.75L343.191 139.75L331.5 160Z" fill="#343A40"/>
<rect x="643.5" y="27.5" width="119" height="38" rx="7.5" stroke="#ADB5BD"/>
<path d="M663.58 43.2102V42.2727H670.125V43.2102H667.381V51H666.324V43.2102H663.58ZM672.625 47.0625V51H671.62V42.2727H672.625V45.4773H672.711C672.864 45.1392 673.094 44.8707 673.401 44.6719C673.711 44.4702 674.123 44.3693 674.637 44.3693C675.083 44.3693 675.473 44.4588 675.809 44.6378C676.144 44.8139 676.404 45.0852 676.588 45.4517C676.776 45.8153 676.87 46.2784 676.87 46.8409V51H675.864V46.9091C675.864 46.3892 675.729 45.9872 675.459 45.7031C675.192 45.4162 674.821 45.2727 674.347 45.2727C674.017 45.2727 673.722 45.3423 673.461 45.4815C673.202 45.6207 672.998 45.8239 672.847 46.0909C672.699 46.358 672.625 46.6818 672.625 47.0625ZM678.71 51V44.4545H679.715V51H678.71ZM679.221 43.3636C679.025 43.3636 678.856 43.2969 678.714 43.1634C678.575 43.0298 678.505 42.8693 678.505 42.6818C678.505 42.4943 678.575 42.3338 678.714 42.2003C678.856 42.0668 679.025 42 679.221 42C679.417 42 679.585 42.0668 679.724 42.2003C679.866 42.3338 679.937 42.4943 679.937 42.6818C679.937 42.8693 679.866 43.0298 679.724 43.1634C679.585 43.2969 679.417 43.3636 679.221 43.3636ZM686.194 45.9205L685.29 46.1761C685.233 46.0256 685.15 45.8793 685.039 45.7372C684.931 45.5923 684.783 45.473 684.596 45.3793C684.408 45.2855 684.168 45.2386 683.875 45.2386C683.475 45.2386 683.141 45.331 682.874 45.5156C682.61 45.6974 682.478 45.929 682.478 46.2102C682.478 46.4602 682.569 46.6577 682.75 46.8026C682.932 46.9474 683.216 47.0682 683.603 47.1648L684.574 47.4034C685.159 47.5455 685.596 47.7628 685.882 48.0554C686.169 48.3452 686.313 48.7187 686.313 49.1761C686.313 49.5511 686.205 49.8864 685.989 50.1818C685.776 50.4773 685.478 50.7102 685.094 50.8807C684.711 51.0511 684.265 51.1364 683.756 51.1364C683.088 51.1364 682.536 50.9915 682.098 50.7017C681.661 50.4119 681.384 49.9886 681.267 49.4318L682.222 49.1932C682.313 49.5455 682.485 49.8097 682.738 49.9858C682.993 50.1619 683.327 50.25 683.739 50.25C684.208 50.25 684.58 50.1506 684.855 49.9517C685.134 49.75 685.273 49.5085 685.273 49.2273C685.273 49 685.194 48.8097 685.034 48.6562C684.875 48.5 684.631 48.3835 684.301 48.3068L683.211 48.0511C682.611 47.9091 682.171 47.6889 681.89 47.3906C681.611 47.0895 681.472 46.7131 681.472 46.2614C681.472 45.892 681.576 45.5653 681.783 45.2812C681.993 44.9972 682.279 44.7741 682.64 44.6122C683.003 44.4503 683.415 44.3693 683.875 44.3693C684.523 44.3693 685.032 44.5114 685.401 44.7955C685.773 45.0795 686.037 45.4545 686.194 45.9205ZM692.685 51L690.69 44.4545H691.747L693.162 49.4659H693.23L694.628 44.4545H695.702L697.082 49.4489H697.151L698.565 44.4545H699.622L697.628 51H696.639L695.207 45.9716H695.105L693.673 51H692.685ZM703.473 51.1364C702.843 51.1364 702.299 50.9972 701.841 50.7188C701.387 50.4375 701.036 50.0455 700.789 49.5426C700.544 49.0369 700.422 48.4489 700.422 47.7784C700.422 47.108 700.544 46.517 700.789 46.0057C701.036 45.4915 701.38 45.0909 701.82 44.804C702.263 44.5142 702.78 44.3693 703.371 44.3693C703.712 44.3693 704.049 44.4261 704.381 44.5398C704.713 44.6534 705.016 44.8381 705.289 45.0938C705.561 45.3466 705.779 45.6818 705.941 46.0994C706.103 46.517 706.184 47.0312 706.184 47.642V48.0682H701.138V47.1989H705.161C705.161 46.8295 705.087 46.5 704.939 46.2102C704.794 45.9205 704.587 45.6918 704.317 45.5241C704.05 45.3565 703.735 45.2727 703.371 45.2727C702.971 45.2727 702.624 45.3722 702.331 45.571C702.042 45.767 701.819 46.0227 701.662 46.3381C701.506 46.6534 701.428 46.9915 701.428 47.3523V47.9318C701.428 48.4261 701.513 48.8452 701.684 49.1889C701.857 49.5298 702.097 49.7898 702.404 49.9688C702.711 50.1449 703.067 50.233 703.473 50.233C703.738 50.233 703.976 50.196 704.189 50.1222C704.405 50.0455 704.591 49.9318 704.748 49.7812C704.904 49.6278 705.025 49.4375 705.11 49.2102L706.081 49.483C705.979 49.8125 705.807 50.1023 705.566 50.3523C705.324 50.5994 705.026 50.7926 704.671 50.9318C704.316 51.0682 703.917 51.1364 703.473 51.1364ZM710.458 51.1364C709.827 51.1364 709.283 50.9972 708.826 50.7188C708.371 50.4375 708.02 50.0455 707.773 49.5426C707.529 49.0369 707.407 48.4489 707.407 47.7784C707.407 47.108 707.529 46.517 707.773 46.0057C708.02 45.4915 708.364 45.0909 708.804 44.804C709.248 44.5142 709.765 44.3693 710.355 44.3693C710.696 44.3693 711.033 44.4261 711.365 44.5398C711.698 44.6534 712 44.8381 712.273 45.0938C712.546 45.3466 712.763 45.6818 712.925 46.0994C713.087 46.517 713.168 47.0312 713.168 47.642V48.0682H708.123V47.1989H712.145C712.145 46.8295 712.071 46.5 711.924 46.2102C711.779 45.9205 711.571 45.6918 711.301 45.5241C711.034 45.3565 710.719 45.2727 710.355 45.2727C709.955 45.2727 709.608 45.3722 709.316 45.571C709.026 45.767 708.803 46.0227 708.647 46.3381C708.49 46.6534 708.412 46.9915 708.412 47.3523V47.9318C708.412 48.4261 708.498 48.8452 708.668 49.1889C708.841 49.5298 709.081 49.7898 709.388 49.9688C709.695 50.1449 710.051 50.233 710.458 50.233C710.722 50.233 710.961 50.196 711.174 50.1222C711.39 50.0455 711.576 49.9318 711.732 49.7812C711.888 49.6278 712.009 49.4375 712.094 49.2102L713.066 49.483C712.963 49.8125 712.792 50.1023 712.55 50.3523C712.309 50.5994 712.01 50.7926 711.655 50.9318C711.3 51.0682 710.901 51.1364 710.458 51.1364ZM715.635 48.6136L715.618 47.3693H715.823L718.686 44.4545H719.931L716.88 47.5398H716.794L715.635 48.6136ZM714.698 51V42.2727H715.703V51H714.698ZM718.857 51L716.3 47.7614L717.016 47.0625L720.135 51H718.857Z" fill="#6C757D"/>
<path d="M740.959 44.9746L737.699 48.2346C737.314 48.6196 736.684 48.6196 736.299 48.2346L733.039 44.9746" stroke="#6C757D" stroke-width="1.5" stroke-miterlimit="10" stroke-linecap="round" stroke-linejoin="round"/>
</svg>
