<svg width="785" height="442" viewBox="0 0 785 442" fill="none" xmlns="http://www.w3.org/2000/svg">
<rect width="785" height="442" rx="20" fill="white"/>
<path d="M28.1378 44V30.9091H30.9055V41.718H36.5178V44H28.1378ZM42.7356 44.1918C41.7427 44.1918 40.8841 43.9808 40.1596 43.5589C39.4395 43.1328 38.8833 42.5405 38.4913 41.782C38.0993 41.0192 37.9032 40.1349 37.9032 39.1293C37.9032 38.1151 38.0993 37.2287 38.4913 36.4702C38.8833 35.7074 39.4395 35.1151 40.1596 34.6932C40.8841 34.267 41.7427 34.054 42.7356 34.054C43.7285 34.054 44.585 34.267 45.3052 34.6932C46.0297 35.1151 46.5879 35.7074 46.9799 36.4702C47.372 37.2287 47.568 38.1151 47.568 39.1293C47.568 40.1349 47.372 41.0192 46.9799 41.782C46.5879 42.5405 46.0297 43.1328 45.3052 43.5589C44.585 43.9808 43.7285 44.1918 42.7356 44.1918ZM42.7484 42.0824C43.2001 42.0824 43.5772 41.9545 43.8798 41.6989C44.1824 41.4389 44.4103 41.0852 44.5637 40.6378C44.7214 40.1903 44.8002 39.6811 44.8002 39.1101C44.8002 38.5391 44.7214 38.0298 44.5637 37.5824C44.4103 37.1349 44.1824 36.7812 43.8798 36.5213C43.5772 36.2614 43.2001 36.1314 42.7484 36.1314C42.2924 36.1314 41.9089 36.2614 41.5978 36.5213C41.291 36.7812 41.0588 37.1349 40.9011 37.5824C40.7477 38.0298 40.671 38.5391 40.671 39.1101C40.671 39.6811 40.7477 40.1903 40.9011 40.6378C41.0588 41.0852 41.291 41.4389 41.5978 41.6989C41.9089 41.9545 42.2924 42.0824 42.7484 42.0824ZM52.1383 44.1854C51.5119 44.1854 50.9537 44.0767 50.4636 43.8594C49.9735 43.6378 49.5858 43.3118 49.3002 42.8814C49.019 42.4467 48.8784 41.9055 48.8784 41.2578C48.8784 40.7124 48.9785 40.2543 49.1788 39.8835C49.3791 39.5128 49.6518 39.2145 49.997 38.9886C50.3422 38.7628 50.7342 38.5923 51.1731 38.4773C51.6163 38.3622 52.0808 38.2812 52.5666 38.2344C53.1376 38.1747 53.5978 38.1193 53.9473 38.0682C54.2967 38.0128 54.5502 37.9318 54.7079 37.8253C54.8656 37.7187 54.9444 37.5611 54.9444 37.3523V37.3139C54.9444 36.9091 54.8166 36.5959 54.5609 36.3743C54.3095 36.1527 53.9515 36.0419 53.487 36.0419C52.997 36.0419 52.6071 36.1506 52.3173 36.3679C52.0275 36.581 51.8358 36.8494 51.742 37.1733L49.2235 36.9688C49.3514 36.3722 49.6028 35.8565 49.9778 35.4219C50.3528 34.983 50.8365 34.6463 51.4288 34.4119C52.0254 34.1733 52.7157 34.054 53.4998 34.054C54.0453 34.054 54.5673 34.1179 55.0659 34.2457C55.5687 34.3736 56.014 34.5717 56.4018 34.8402C56.7939 35.1087 57.1028 35.4538 57.3287 35.8757C57.5545 36.2933 57.6674 36.794 57.6674 37.3778V44H55.0851V42.6385H55.0083C54.8507 42.9453 54.6397 43.2159 54.3755 43.4503C54.1113 43.6804 53.7939 43.8615 53.4231 43.9936C53.0524 44.1214 52.6241 44.1854 52.1383 44.1854ZM52.9181 42.3061C53.3187 42.3061 53.6724 42.2273 53.9792 42.0696C54.286 41.9077 54.5268 41.6903 54.7015 41.4176C54.8762 41.1449 54.9636 40.8359 54.9636 40.4908V39.4489C54.8784 39.5043 54.7612 39.5554 54.612 39.6023C54.4672 39.6449 54.3031 39.6854 54.1199 39.7237C53.9366 39.7578 53.7534 39.7898 53.5701 39.8196C53.3869 39.8452 53.2207 39.8686 53.0716 39.8899C52.752 39.9368 52.4728 40.0114 52.2342 40.1136C51.9956 40.2159 51.8102 40.3544 51.6781 40.5291C51.546 40.6996 51.4799 40.9126 51.4799 41.1683C51.4799 41.5391 51.6142 41.8224 51.8826 42.0185C52.1554 42.2102 52.5005 42.3061 52.9181 42.3061ZM62.503 38.3239V44H59.78V34.1818H62.3752V35.9141H62.4902C62.7076 35.343 63.0719 34.8913 63.5833 34.5589C64.0946 34.2223 64.7147 34.054 65.4434 34.054C66.1252 34.054 66.7196 34.2031 67.2267 34.5014C67.7338 34.7997 68.128 35.2259 68.4093 35.7798C68.6905 36.3295 68.8311 36.9858 68.8311 37.7486V44H66.1081V38.2344C66.1124 37.6335 65.959 37.1648 65.6479 36.8281C65.3368 36.4872 64.9086 36.3168 64.3631 36.3168C63.9966 36.3168 63.6728 36.3956 63.3915 36.5533C63.1145 36.7109 62.8972 36.9411 62.7395 37.2436C62.5861 37.5419 62.5073 37.902 62.503 38.3239ZM78.7612 44.1598C78.0154 44.1598 77.34 43.968 76.7349 43.5845C76.1341 43.1967 75.6568 42.6278 75.3031 41.8778C74.9537 41.1236 74.7789 40.1989 74.7789 39.1037C74.7789 37.9787 74.96 37.0433 75.3223 36.2976C75.6845 35.5476 76.166 34.9872 76.7669 34.6165C77.372 34.2415 78.0346 34.054 78.7548 34.054C79.3045 34.054 79.7626 34.1477 80.1291 34.3352C80.4998 34.5185 80.7981 34.7486 81.024 35.0256C81.2541 35.2983 81.4288 35.5668 81.5481 35.831H81.6312V30.9091H84.3478V44H81.6632V42.4276H81.5481C81.4203 42.7003 81.2392 42.9709 81.0048 43.2393C80.7747 43.5036 80.4743 43.723 80.1035 43.8977C79.737 44.0724 79.2896 44.1598 78.7612 44.1598ZM79.6241 41.9929C80.063 41.9929 80.4338 41.8736 80.7363 41.6349C81.0431 41.392 81.2775 41.0533 81.4395 40.6186C81.6056 40.1839 81.6887 39.6747 81.6887 39.0909C81.6887 38.5071 81.6078 38 81.4458 37.5696C81.2839 37.1392 81.0495 36.8068 80.7427 36.5724C80.4359 36.3381 80.063 36.2209 79.6241 36.2209C79.1767 36.2209 78.7995 36.3423 78.4927 36.5852C78.1859 36.8281 77.9537 37.1648 77.796 37.5952C77.6383 38.0256 77.5595 38.5241 77.5595 39.0909C77.5595 39.6619 77.6383 40.1669 77.796 40.6058C77.9579 41.0405 78.1902 41.3814 78.4927 41.6286C78.7995 41.8714 79.1767 41.9929 79.6241 41.9929ZM86.5866 44V34.1818H89.3097V44H86.5866ZM87.9545 32.9162C87.5497 32.9162 87.2024 32.782 86.9126 32.5135C86.6271 32.2408 86.4844 31.9148 86.4844 31.5355C86.4844 31.1605 86.6271 30.8388 86.9126 30.5703C87.2024 30.2976 87.5497 30.1612 87.9545 30.1612C88.3594 30.1612 88.7045 30.2976 88.9901 30.5703C89.2798 30.8388 89.4247 31.1605 89.4247 31.5355C89.4247 31.9148 89.2798 32.2408 88.9901 32.5135C88.7045 32.782 88.3594 32.9162 87.9545 32.9162ZM99.66 36.9815L97.1671 37.1349C97.1245 36.9219 97.0328 36.7301 96.8922 36.5597C96.7516 36.3849 96.5662 36.2464 96.3361 36.1442C96.1103 36.0376 95.8397 35.9844 95.5243 35.9844C95.1025 35.9844 94.7466 36.0739 94.4569 36.2528C94.1671 36.4276 94.0222 36.6619 94.0222 36.956C94.0222 37.1903 94.1159 37.3885 94.3034 37.5504C94.4909 37.7124 94.8127 37.8423 95.2686 37.9403L97.0456 38.2983C98.0002 38.4943 98.7118 38.8097 99.1806 39.2443C99.6493 39.679 99.8837 40.25 99.8837 40.9574C99.8837 41.6009 99.6941 42.1655 99.3148 42.6513C98.9398 43.1371 98.4242 43.5163 97.7679 43.7891C97.1159 44.0575 96.3638 44.1918 95.5115 44.1918C94.2118 44.1918 93.1763 43.9212 92.405 43.38C91.638 42.8345 91.1884 42.093 91.0563 41.1555L93.7346 41.0149C93.8155 41.4112 94.0115 41.7138 94.3226 41.9226C94.6337 42.1271 95.0321 42.2294 95.5179 42.2294C95.9952 42.2294 96.3787 42.1378 96.6685 41.9545C96.9625 41.767 97.1117 41.5263 97.1159 41.2322C97.1117 40.9851 97.0073 40.7827 96.8027 40.625C96.5982 40.4631 96.2828 40.3395 95.8567 40.2543L94.1564 39.9155C93.1976 39.7237 92.4838 39.3913 92.0151 38.9183C91.5506 38.4453 91.3184 37.8423 91.3184 37.1094C91.3184 36.4787 91.4888 35.9354 91.8297 35.4794C92.1749 35.0234 92.6586 34.6719 93.2807 34.4247C93.9071 34.1776 94.6401 34.054 95.4796 34.054C96.7196 34.054 97.6955 34.3161 98.4071 34.8402C99.123 35.3643 99.5407 36.0781 99.66 36.9815ZM101.65 44V30.9091H104.373V35.831H104.456C104.575 35.5668 104.748 35.2983 104.973 35.0256C105.203 34.7486 105.502 34.5185 105.868 34.3352C106.239 34.1477 106.699 34.054 107.249 34.054C107.965 34.054 108.625 34.2415 109.23 34.6165C109.836 34.9872 110.319 35.5476 110.681 36.2976C111.044 37.0433 111.225 37.9787 111.225 39.1037C111.225 40.1989 111.048 41.1236 110.694 41.8778C110.345 42.6278 109.868 43.1967 109.262 43.5845C108.662 43.968 107.988 44.1598 107.243 44.1598C106.714 44.1598 106.265 44.0724 105.894 43.8977C105.527 43.723 105.227 43.5036 104.993 43.2393C104.758 42.9709 104.579 42.7003 104.456 42.4276H104.334V44H101.65ZM104.315 39.0909C104.315 39.6747 104.396 40.1839 104.558 40.6186C104.72 41.0533 104.954 41.392 105.261 41.6349C105.568 41.8736 105.941 41.9929 106.38 41.9929C106.823 41.9929 107.198 41.8714 107.505 41.6286C107.811 41.3814 108.044 41.0405 108.201 40.6058C108.363 40.1669 108.444 39.6619 108.444 39.0909C108.444 38.5241 108.365 38.0256 108.208 37.5952C108.05 37.1648 107.818 36.8281 107.511 36.5852C107.204 36.3423 106.827 36.2209 106.38 36.2209C105.936 36.2209 105.561 36.3381 105.255 36.5724C104.952 36.8068 104.72 37.1392 104.558 37.5696C104.396 38 104.315 38.5071 104.315 39.0909ZM119.338 39.8196V34.1818H122.061V44H119.447V42.2166H119.344C119.123 42.7919 118.754 43.2543 118.238 43.6037C117.727 43.9531 117.103 44.1278 116.366 44.1278C115.709 44.1278 115.132 43.9787 114.633 43.6804C114.135 43.3821 113.745 42.9581 113.464 42.4084C113.187 41.8587 113.046 41.2003 113.042 40.4332V34.1818H115.765V39.9474C115.769 40.527 115.925 40.9851 116.231 41.3217C116.538 41.6584 116.949 41.8267 117.465 41.8267C117.793 41.8267 118.1 41.7521 118.385 41.603C118.671 41.4496 118.901 41.2237 119.076 40.9254C119.255 40.6271 119.342 40.2585 119.338 39.8196ZM124.239 44V34.1818H126.879V35.8949H126.981C127.16 35.2855 127.461 34.8253 127.882 34.5142C128.304 34.1989 128.79 34.0412 129.34 34.0412C129.476 34.0412 129.623 34.0497 129.781 34.0668C129.939 34.0838 130.077 34.1072 130.196 34.1371V36.5533C130.069 36.5149 129.892 36.4808 129.666 36.451C129.44 36.4212 129.233 36.4062 129.046 36.4062C128.645 36.4062 128.287 36.4936 127.972 36.6683C127.661 36.8388 127.414 37.0774 127.23 37.3842C127.051 37.6911 126.962 38.0447 126.962 38.4453V44H124.239ZM139.773 36.9815L137.28 37.1349C137.238 36.9219 137.146 36.7301 137.006 36.5597C136.865 36.3849 136.68 36.2464 136.449 36.1442C136.224 36.0376 135.953 35.9844 135.638 35.9844C135.216 35.9844 134.86 36.0739 134.57 36.2528C134.28 36.4276 134.135 36.6619 134.135 36.956C134.135 37.1903 134.229 37.3885 134.417 37.5504C134.604 37.7124 134.926 37.8423 135.382 37.9403L137.159 38.2983C138.113 38.4943 138.825 38.8097 139.294 39.2443C139.763 39.679 139.997 40.25 139.997 40.9574C139.997 41.6009 139.807 42.1655 139.428 42.6513C139.053 43.1371 138.537 43.5163 137.881 43.7891C137.229 44.0575 136.477 44.1918 135.625 44.1918C134.325 44.1918 133.29 43.9212 132.518 43.38C131.751 42.8345 131.302 42.093 131.17 41.1555L133.848 41.0149C133.929 41.4112 134.125 41.7138 134.436 41.9226C134.747 42.1271 135.145 42.2294 135.631 42.2294C136.108 42.2294 136.492 42.1378 136.782 41.9545C137.076 41.767 137.225 41.5263 137.229 41.2322C137.225 40.9851 137.121 40.7827 136.916 40.625C136.711 40.4631 136.396 40.3395 135.97 40.2543L134.27 39.9155C133.311 39.7237 132.597 39.3913 132.128 38.9183C131.664 38.4453 131.432 37.8423 131.432 37.1094C131.432 36.4787 131.602 35.9354 131.943 35.4794C132.288 35.0234 132.772 34.6719 133.394 34.4247C134.02 34.1776 134.753 34.054 135.593 34.054C136.833 34.054 137.809 34.3161 138.52 34.8402C139.236 35.3643 139.654 36.0781 139.773 36.9815ZM146.186 44.1918C145.176 44.1918 144.307 43.9872 143.578 43.5781C142.854 43.1648 142.295 42.581 141.903 41.8267C141.511 41.0682 141.315 40.1712 141.315 39.1357C141.315 38.1257 141.511 37.2393 141.903 36.4766C142.295 35.7138 142.847 35.1193 143.559 34.6932C144.275 34.267 145.114 34.054 146.077 34.054C146.725 34.054 147.328 34.1584 147.886 34.3672C148.449 34.5717 148.939 34.8807 149.357 35.294C149.778 35.7074 150.107 36.2273 150.341 36.8537C150.575 37.4759 150.692 38.2045 150.692 39.0398V39.7876H142.402V38.1001H148.129C148.129 37.7081 148.044 37.3608 147.874 37.0582C147.703 36.7557 147.467 36.5192 147.164 36.3487C146.866 36.174 146.518 36.0866 146.122 36.0866C145.709 36.0866 145.342 36.1825 145.023 36.3743C144.707 36.5618 144.46 36.8153 144.281 37.1349C144.102 37.4503 144.011 37.8018 144.006 38.1896V39.794C144.006 40.2798 144.096 40.6996 144.275 41.0533C144.458 41.407 144.716 41.6797 145.048 41.8714C145.381 42.0632 145.775 42.1591 146.231 42.1591C146.533 42.1591 146.81 42.1165 147.062 42.0312C147.313 41.946 147.528 41.8182 147.707 41.6477C147.886 41.4773 148.023 41.2685 148.116 41.0213L150.635 41.1875C150.507 41.7926 150.245 42.321 149.849 42.7727C149.457 43.2202 148.95 43.5696 148.327 43.821C147.71 44.0682 146.996 44.1918 146.186 44.1918ZM152.469 44V34.1818H155.065V35.9141H155.18C155.384 35.3388 155.725 34.8849 156.202 34.5526C156.68 34.2202 157.251 34.054 157.915 34.054C158.589 34.054 159.162 34.2223 159.635 34.5589C160.108 34.8913 160.423 35.343 160.581 35.9141H160.683C160.884 35.3516 161.246 34.902 161.77 34.5653C162.298 34.2244 162.923 34.054 163.643 34.054C164.559 34.054 165.303 34.3459 165.874 34.9297C166.449 35.5092 166.737 36.3317 166.737 37.397V44H164.02V37.9339C164.02 37.3885 163.875 36.9794 163.585 36.7067C163.295 36.4339 162.933 36.2976 162.499 36.2976C162.004 36.2976 161.619 36.4553 161.342 36.7706C161.065 37.0817 160.926 37.4929 160.926 38.0043V44H158.286V37.8764C158.286 37.3949 158.148 37.0114 157.871 36.7259C157.598 36.4403 157.238 36.2976 156.79 36.2976C156.488 36.2976 156.215 36.3743 155.972 36.5277C155.734 36.6768 155.544 36.8878 155.403 37.1605C155.263 37.429 155.192 37.7443 155.192 38.1065V44H152.469ZM173.362 44.1918C172.352 44.1918 171.483 43.9872 170.754 43.5781C170.029 43.1648 169.471 42.581 169.079 41.8267C168.687 41.0682 168.491 40.1712 168.491 39.1357C168.491 38.1257 168.687 37.2393 169.079 36.4766C169.471 35.7138 170.023 35.1193 170.735 34.6932C171.451 34.267 172.29 34.054 173.253 34.054C173.901 34.054 174.504 34.1584 175.062 34.3672C175.625 34.5717 176.115 34.8807 176.532 35.294C176.954 35.7074 177.282 36.2273 177.517 36.8537C177.751 37.4759 177.868 38.2045 177.868 39.0398V39.7876H169.578V38.1001H175.305C175.305 37.7081 175.22 37.3608 175.049 37.0582C174.879 36.7557 174.642 36.5192 174.34 36.3487C174.042 36.174 173.694 36.0866 173.298 36.0866C172.885 36.0866 172.518 36.1825 172.199 36.3743C171.883 36.5618 171.636 36.8153 171.457 37.1349C171.278 37.4503 171.186 37.8018 171.182 38.1896V39.794C171.182 40.2798 171.272 40.6996 171.451 41.0533C171.634 41.407 171.892 41.6797 172.224 41.8714C172.556 42.0632 172.951 42.1591 173.407 42.1591C173.709 42.1591 173.986 42.1165 174.238 42.0312C174.489 41.946 174.704 41.8182 174.883 41.6477C175.062 41.4773 175.199 41.2685 175.292 41.0213L177.811 41.1875C177.683 41.7926 177.421 42.321 177.025 42.7727C176.632 43.2202 176.125 43.5696 175.503 43.821C174.885 44.0682 174.172 44.1918 173.362 44.1918ZM182.368 38.3239V44H179.645V34.1818H182.24V35.9141H182.355C182.573 35.343 182.937 34.8913 183.449 34.5589C183.96 34.2223 184.58 34.054 185.309 34.054C185.99 34.054 186.585 34.2031 187.092 34.5014C187.599 34.7997 187.993 35.2259 188.275 35.7798C188.556 36.3295 188.696 36.9858 188.696 37.7486V44H185.973V38.2344C185.978 37.6335 185.824 37.1648 185.513 36.8281C185.202 36.4872 184.774 36.3168 184.228 36.3168C183.862 36.3168 183.538 36.3956 183.257 36.5533C182.98 36.7109 182.762 36.9411 182.605 37.2436C182.451 37.5419 182.373 37.902 182.368 38.3239ZM196.065 34.1818V36.2273H190.152V34.1818H196.065ZM191.494 31.8295H194.218V40.983C194.218 41.2344 194.256 41.4304 194.333 41.571C194.409 41.7074 194.516 41.8033 194.652 41.8587C194.793 41.9141 194.955 41.9418 195.138 41.9418C195.266 41.9418 195.394 41.9311 195.521 41.9098C195.649 41.8842 195.747 41.8651 195.816 41.8523L196.244 43.8786C196.107 43.9212 195.916 43.9702 195.669 44.0256C195.421 44.0852 195.121 44.1214 194.767 44.1342C194.111 44.1598 193.536 44.0724 193.041 43.8722C192.551 43.6719 192.17 43.3608 191.897 42.9389C191.624 42.517 191.49 41.9844 191.494 41.3409V31.8295Z" fill="#343A40"/>
<line x1="83.5" y1="82" x2="83.5" y2="380" stroke="#E9ECEF"/>
<line x1="83" y1="379.5" x2="734" y2="379.5" stroke="#E9ECEF"/>
<path d="M47.9716 98.2727V107H46.9148V99.3807H46.8636L44.733 100.795V99.7216L46.9148 98.2727H47.9716ZM50.4815 107V106.233L53.3622 103.08C53.7003 102.71 53.9787 102.389 54.1974 102.116C54.4162 101.841 54.5781 101.582 54.6832 101.341C54.7912 101.097 54.8452 100.841 54.8452 100.574C54.8452 100.267 54.7713 100.001 54.6236 99.777C54.4787 99.5526 54.2798 99.3793 54.027 99.2571C53.7741 99.1349 53.4901 99.0739 53.1747 99.0739C52.8395 99.0739 52.5469 99.1435 52.2969 99.2827C52.0497 99.419 51.858 99.6108 51.7216 99.858C51.5881 100.105 51.5213 100.395 51.5213 100.727H50.5156C50.5156 100.216 50.6335 99.767 50.8693 99.3807C51.1051 98.9943 51.4261 98.6932 51.8324 98.4773C52.2415 98.2614 52.7003 98.1534 53.2088 98.1534C53.7202 98.1534 54.1733 98.2614 54.5682 98.4773C54.9631 98.6932 55.2727 98.9844 55.4972 99.3509C55.7216 99.7173 55.8338 100.125 55.8338 100.574C55.8338 100.895 55.7756 101.209 55.6591 101.516C55.5455 101.82 55.3466 102.159 55.0625 102.534C54.7812 102.906 54.3906 103.361 53.8906 103.898L51.9304 105.994V106.062H55.9872V107H50.4815ZM57.9006 98.2727H59.1619L62.1278 105.517H62.2301L65.196 98.2727H66.4574V107H65.4688V100.369H65.3835L62.6562 107H61.7017L58.9744 100.369H58.8892V107H57.9006V98.2727Z" fill="#ADB5BD"/>
<path d="M47.9716 145.273V154H46.9148V146.381H46.8636L44.733 147.795V146.722L46.9148 145.273H47.9716ZM53.3281 154.119C52.6861 154.119 52.1392 153.945 51.6875 153.595C51.2358 153.243 50.8906 152.733 50.652 152.065C50.4134 151.395 50.294 150.585 50.294 149.636C50.294 148.693 50.4134 147.888 50.652 147.22C50.8935 146.55 51.2401 146.038 51.6918 145.686C52.1463 145.331 52.6918 145.153 53.3281 145.153C53.9645 145.153 54.5085 145.331 54.9602 145.686C55.4148 146.038 55.7614 146.55 56 147.22C56.2415 147.888 56.3622 148.693 56.3622 149.636C56.3622 150.585 56.2429 151.395 56.0043 152.065C55.7656 152.733 55.4205 153.243 54.9688 153.595C54.517 153.945 53.9702 154.119 53.3281 154.119ZM53.3281 153.182C53.9645 153.182 54.4588 152.875 54.8111 152.261C55.1634 151.648 55.3395 150.773 55.3395 149.636C55.3395 148.881 55.2585 148.237 55.0966 147.706C54.9375 147.175 54.7074 146.77 54.4062 146.491C54.108 146.213 53.7486 146.074 53.3281 146.074C52.6974 146.074 52.2045 146.385 51.8494 147.007C51.4943 147.626 51.3168 148.503 51.3168 149.636C51.3168 150.392 51.3963 151.034 51.5554 151.562C51.7145 152.091 51.9432 152.493 52.2415 152.768C52.5426 153.044 52.9048 153.182 53.3281 153.182ZM58.1349 145.273H59.3963L62.3622 152.517H62.4645L65.4304 145.273H66.6918V154H65.7031V147.369H65.6179L62.8906 154H61.9361L59.2088 147.369H59.1236V154H58.1349V145.273Z" fill="#ADB5BD"/>
<path d="M47.6989 201.119C47.1136 201.119 46.5966 201.016 46.1477 200.808C45.7017 200.598 45.3537 200.31 45.1037 199.943C44.8537 199.574 44.7301 199.153 44.733 198.682C44.7301 198.312 44.8026 197.972 44.9503 197.659C45.098 197.344 45.2997 197.081 45.5554 196.871C45.8139 196.658 46.1023 196.523 46.4205 196.466V196.415C46.0028 196.307 45.6705 196.072 45.4233 195.712C45.1761 195.348 45.054 194.935 45.0568 194.472C45.054 194.028 45.1662 193.632 45.3935 193.283C45.6207 192.933 45.9332 192.658 46.331 192.456C46.7315 192.254 47.1875 192.153 47.6989 192.153C48.2045 192.153 48.6563 192.254 49.054 192.456C49.4517 192.658 49.7642 192.933 49.9915 193.283C50.2216 193.632 50.3381 194.028 50.3409 194.472C50.3381 194.935 50.2116 195.348 49.9616 195.712C49.7145 196.072 49.3864 196.307 48.9773 196.415V196.466C49.2926 196.523 49.5767 196.658 49.8295 196.871C50.0824 197.081 50.2841 197.344 50.4347 197.659C50.5852 197.972 50.6619 198.312 50.6648 198.682C50.6619 199.153 50.5341 199.574 50.2812 199.943C50.0312 200.31 49.6832 200.598 49.2372 200.808C48.794 201.016 48.2813 201.119 47.6989 201.119ZM47.6989 200.182C48.0938 200.182 48.4347 200.118 48.7216 199.99C49.0085 199.862 49.2301 199.682 49.3864 199.449C49.5426 199.216 49.6222 198.943 49.625 198.631C49.6222 198.301 49.5369 198.01 49.3693 197.757C49.2017 197.504 48.973 197.305 48.6832 197.161C48.3963 197.016 48.0682 196.943 47.6989 196.943C47.3267 196.943 46.9943 197.016 46.7017 197.161C46.4119 197.305 46.1832 197.504 46.0156 197.757C45.8509 198.01 45.7699 198.301 45.7727 198.631C45.7699 198.943 45.8452 199.216 45.9986 199.449C46.1548 199.682 46.3778 199.862 46.6676 199.99C46.9574 200.118 47.3011 200.182 47.6989 200.182ZM47.6989 196.04C48.0114 196.04 48.2884 195.977 48.5298 195.852C48.7741 195.727 48.9659 195.553 49.1051 195.328C49.2443 195.104 49.3153 194.841 49.3182 194.54C49.3153 194.244 49.2457 193.987 49.1094 193.768C48.973 193.547 48.7841 193.376 48.5426 193.257C48.3011 193.135 48.0199 193.074 47.6989 193.074C47.3722 193.074 47.0866 193.135 46.8423 193.257C46.598 193.376 46.4091 193.547 46.2756 193.768C46.142 193.987 46.0767 194.244 46.0795 194.54C46.0767 194.841 46.1435 195.104 46.2798 195.328C46.419 195.553 46.6108 195.727 46.8551 195.852C47.0994 195.977 47.3807 196.04 47.6989 196.04ZM52.4513 192.273H53.7127L56.6786 199.517H56.7809L59.7468 192.273H61.0082V201H60.0195V194.369H59.9343L57.207 201H56.2525L53.5252 194.369H53.44V201H52.4513V192.273Z" fill="#ADB5BD"/>
<path d="M47.8011 248.119C47.4432 248.114 47.0852 248.045 46.7273 247.915C46.3693 247.784 46.0426 247.564 45.7472 247.254C45.4517 246.942 45.2145 246.52 45.0355 245.989C44.8565 245.455 44.767 244.784 44.767 243.977C44.767 243.205 44.8395 242.52 44.9844 241.923C45.1293 241.324 45.3395 240.82 45.6151 240.411C45.8906 239.999 46.223 239.686 46.6122 239.473C47.0043 239.26 47.446 239.153 47.9375 239.153C48.4261 239.153 48.8608 239.251 49.2415 239.447C49.625 239.641 49.9375 239.911 50.179 240.257C50.4205 240.604 50.5767 241.003 50.6477 241.455H49.608C49.5114 241.062 49.3239 240.737 49.0455 240.479C48.767 240.22 48.3977 240.091 47.9375 240.091C47.2614 240.091 46.7287 240.385 46.3395 240.973C45.9531 241.561 45.7585 242.386 45.7557 243.449H45.8239C45.983 243.207 46.1719 243.001 46.3906 242.831C46.6122 242.658 46.8565 242.524 47.1236 242.43C47.3906 242.337 47.6733 242.29 47.9716 242.29C48.4716 242.29 48.929 242.415 49.3438 242.665C49.7585 242.912 50.0909 243.254 50.3409 243.692C50.5909 244.126 50.7159 244.625 50.7159 245.188C50.7159 245.727 50.5952 246.222 50.3537 246.67C50.1122 247.116 49.7727 247.472 49.3352 247.736C48.9006 247.997 48.3892 248.125 47.8011 248.119ZM47.8011 247.182C48.1591 247.182 48.4801 247.092 48.7642 246.913C49.0511 246.734 49.277 246.494 49.4418 246.193C49.6094 245.892 49.6932 245.557 49.6932 245.188C49.6932 244.827 49.6122 244.499 49.4503 244.203C49.2912 243.905 49.071 243.668 48.7898 243.491C48.5114 243.315 48.1932 243.227 47.8352 243.227C47.5653 243.227 47.3139 243.281 47.081 243.389C46.848 243.494 46.6435 243.639 46.4673 243.824C46.294 244.009 46.1577 244.22 46.0582 244.459C45.9588 244.695 45.9091 244.943 45.9091 245.205C45.9091 245.551 45.9901 245.875 46.152 246.176C46.3168 246.477 46.5412 246.72 46.8253 246.905C47.1122 247.089 47.4375 247.182 47.8011 247.182ZM52.5451 239.273H53.8065L56.7724 246.517H56.8746L59.8406 239.273H61.1019V248H60.1133V241.369H60.0281L57.3008 248H56.3462L53.619 241.369H53.5337V248H52.5451V239.273Z" fill="#ADB5BD"/>
<path d="M44.6989 293.21V292.341L48.5341 286.273H49.1648V287.619H48.7386L45.8409 292.205V292.273H51.0057V293.21H44.6989ZM48.8068 295V292.946V292.541V286.273H49.8125V295H48.8068ZM52.756 286.273H54.0174L56.9833 293.517H57.0856L60.0515 286.273H61.3129V295H60.3242V288.369H60.239L57.5117 295H56.5572L53.8299 288.369H53.7447V295H52.756V286.273Z" fill="#ADB5BD"/>
<path d="M44.9034 342V341.233L47.7841 338.08C48.1222 337.71 48.4006 337.389 48.6193 337.116C48.8381 336.841 49 336.582 49.1051 336.341C49.2131 336.097 49.267 335.841 49.267 335.574C49.267 335.267 49.1932 335.001 49.0455 334.777C48.9006 334.553 48.7017 334.379 48.4489 334.257C48.196 334.135 47.9119 334.074 47.5966 334.074C47.2614 334.074 46.9688 334.143 46.7188 334.283C46.4716 334.419 46.2798 334.611 46.1435 334.858C46.0099 335.105 45.9432 335.395 45.9432 335.727H44.9375C44.9375 335.216 45.0554 334.767 45.2912 334.381C45.527 333.994 45.848 333.693 46.2543 333.477C46.6634 333.261 47.1222 333.153 47.6307 333.153C48.142 333.153 48.5952 333.261 48.9901 333.477C49.3849 333.693 49.6946 333.984 49.919 334.351C50.1435 334.717 50.2557 335.125 50.2557 335.574C50.2557 335.895 50.1974 336.209 50.081 336.516C49.9673 336.82 49.7685 337.159 49.4844 337.534C49.2031 337.906 48.8125 338.361 48.3125 338.898L46.3523 340.994V341.062H50.4091V342H44.9034ZM52.3224 333.273H53.5838L56.5497 340.517H56.652L59.6179 333.273H60.8793V342H59.8906V335.369H59.8054L57.0781 342H56.1236L53.3963 335.369H53.3111V342H52.3224V333.273Z" fill="#ADB5BD"/>
<path d="M132.057 399.273H133.318L136.284 406.517H136.386L139.352 399.273H140.614V408H139.625V401.369H139.54L136.812 408H135.858L133.131 401.369H133.045V408H132.057V399.273ZM145.255 408.136C144.664 408.136 144.146 407.996 143.7 407.714C143.257 407.433 142.91 407.04 142.66 406.534C142.413 406.028 142.289 405.437 142.289 404.761C142.289 404.08 142.413 403.484 142.66 402.976C142.91 402.467 143.257 402.072 143.7 401.791C144.146 401.51 144.664 401.369 145.255 401.369C145.846 401.369 146.363 401.51 146.806 401.791C147.252 402.072 147.599 402.467 147.846 402.976C148.096 403.484 148.221 404.08 148.221 404.761C148.221 405.437 148.096 406.028 147.846 406.534C147.599 407.04 147.252 407.433 146.806 407.714C146.363 407.996 145.846 408.136 145.255 408.136ZM145.255 407.233C145.704 407.233 146.074 407.118 146.363 406.888C146.653 406.658 146.868 406.355 147.007 405.98C147.146 405.605 147.216 405.199 147.216 404.761C147.216 404.324 147.146 403.916 147.007 403.538C146.868 403.161 146.653 402.855 146.363 402.622C146.074 402.389 145.704 402.273 145.255 402.273C144.806 402.273 144.437 402.389 144.147 402.622C143.858 402.855 143.643 403.161 143.504 403.538C143.365 403.916 143.295 404.324 143.295 404.761C143.295 405.199 143.365 405.605 143.504 405.98C143.643 406.355 143.858 406.658 144.147 406.888C144.437 407.118 144.806 407.233 145.255 407.233ZM150.762 404.062V408H149.756V401.455H150.728V402.477H150.813C150.967 402.145 151.2 401.878 151.512 401.676C151.825 401.472 152.228 401.369 152.722 401.369C153.165 401.369 153.553 401.46 153.886 401.642C154.218 401.821 154.477 402.094 154.661 402.46C154.846 402.824 154.938 403.284 154.938 403.841V408H153.933V403.909C153.933 403.395 153.799 402.994 153.532 402.707C153.265 402.418 152.898 402.273 152.433 402.273C152.112 402.273 151.825 402.342 151.572 402.482C151.322 402.621 151.124 402.824 150.979 403.091C150.835 403.358 150.762 403.682 150.762 404.062Z" fill="#ADB5BD"/>
<path d="M228.58 400.21V399.273H235.125V400.21H232.381V408H231.324V400.21H228.58ZM239.854 405.324V401.455H240.86V408H239.854V406.892H239.786C239.632 407.224 239.394 407.507 239.07 407.74C238.746 407.97 238.337 408.085 237.843 408.085C237.434 408.085 237.07 407.996 236.752 407.817C236.434 407.635 236.184 407.362 236.002 406.999C235.82 406.632 235.729 406.17 235.729 405.614V401.455H236.735V405.545C236.735 406.023 236.868 406.403 237.135 406.688C237.405 406.972 237.749 407.114 238.167 407.114C238.417 407.114 238.671 407.05 238.929 406.922C239.191 406.794 239.409 406.598 239.586 406.334C239.765 406.07 239.854 405.733 239.854 405.324ZM245.446 408.136C244.815 408.136 244.271 407.997 243.814 407.719C243.359 407.438 243.009 407.045 242.761 406.543C242.517 406.037 242.395 405.449 242.395 404.778C242.395 404.108 242.517 403.517 242.761 403.006C243.009 402.491 243.352 402.091 243.793 401.804C244.236 401.514 244.753 401.369 245.344 401.369C245.685 401.369 246.021 401.426 246.354 401.54C246.686 401.653 246.989 401.838 247.261 402.094C247.534 402.347 247.751 402.682 247.913 403.099C248.075 403.517 248.156 404.031 248.156 404.642V405.068H243.111V404.199H247.134C247.134 403.83 247.06 403.5 246.912 403.21C246.767 402.92 246.56 402.692 246.29 402.524C246.023 402.357 245.707 402.273 245.344 402.273C244.943 402.273 244.597 402.372 244.304 402.571C244.014 402.767 243.791 403.023 243.635 403.338C243.479 403.653 243.401 403.991 243.401 404.352V404.932C243.401 405.426 243.486 405.845 243.656 406.189C243.83 406.53 244.07 406.79 244.376 406.969C244.683 407.145 245.04 407.233 245.446 407.233C245.71 407.233 245.949 407.196 246.162 407.122C246.378 407.045 246.564 406.932 246.72 406.781C246.876 406.628 246.997 406.437 247.082 406.21L248.054 406.483C247.952 406.812 247.78 407.102 247.538 407.352C247.297 407.599 246.999 407.793 246.643 407.932C246.288 408.068 245.889 408.136 245.446 408.136Z" fill="#ADB5BD"/>
<path d="M323.642 408L321.256 399.273H322.33L324.153 406.381H324.239L326.097 399.273H327.29L329.148 406.381H329.233L331.057 399.273H332.131L329.744 408H328.653L326.727 401.045H326.659L324.733 408H323.642ZM335.446 408.136C334.815 408.136 334.271 407.997 333.814 407.719C333.359 407.438 333.009 407.045 332.761 406.543C332.517 406.037 332.395 405.449 332.395 404.778C332.395 404.108 332.517 403.517 332.761 403.006C333.009 402.491 333.352 402.091 333.793 401.804C334.236 401.514 334.753 401.369 335.344 401.369C335.685 401.369 336.021 401.426 336.354 401.54C336.686 401.653 336.989 401.838 337.261 402.094C337.534 402.347 337.751 402.682 337.913 403.099C338.075 403.517 338.156 404.031 338.156 404.642V405.068H333.111V404.199H337.134C337.134 403.83 337.06 403.5 336.912 403.21C336.767 402.92 336.56 402.692 336.29 402.524C336.023 402.357 335.707 402.273 335.344 402.273C334.943 402.273 334.597 402.372 334.304 402.571C334.014 402.767 333.791 403.023 333.635 403.338C333.479 403.653 333.401 403.991 333.401 404.352V404.932C333.401 405.426 333.486 405.845 333.656 406.189C333.83 406.53 334.07 406.79 334.376 406.969C334.683 407.145 335.04 407.233 335.446 407.233C335.71 407.233 335.949 407.196 336.162 407.122C336.378 407.045 336.564 406.932 336.72 406.781C336.876 406.628 336.997 406.437 337.082 406.21L338.054 406.483C337.952 406.812 337.78 407.102 337.538 407.352C337.297 407.599 336.999 407.793 336.643 407.932C336.288 408.068 335.889 408.136 335.446 408.136ZM342.158 408.136C341.612 408.136 341.131 407.999 340.713 407.723C340.295 407.445 339.969 407.053 339.733 406.547C339.497 406.038 339.379 405.438 339.379 404.744C339.379 404.057 339.497 403.46 339.733 402.955C339.969 402.449 340.297 402.058 340.717 401.783C341.138 401.507 341.624 401.369 342.175 401.369C342.601 401.369 342.938 401.44 343.185 401.582C343.435 401.722 343.625 401.881 343.756 402.06C343.889 402.236 343.993 402.381 344.067 402.494H344.152V399.273H345.158V408H344.186V406.994H344.067C343.993 407.114 343.888 407.264 343.751 407.446C343.615 407.625 343.42 407.786 343.168 407.928C342.915 408.067 342.578 408.136 342.158 408.136ZM342.294 407.233C342.697 407.233 343.038 407.128 343.317 406.918C343.595 406.705 343.807 406.411 343.952 406.036C344.097 405.658 344.169 405.222 344.169 404.727C344.169 404.239 344.098 403.811 343.956 403.445C343.814 403.075 343.604 402.788 343.325 402.584C343.047 402.376 342.703 402.273 342.294 402.273C341.868 402.273 341.513 402.382 341.229 402.601C340.947 402.817 340.736 403.111 340.594 403.483C340.455 403.852 340.385 404.267 340.385 404.727C340.385 405.193 340.456 405.616 340.598 405.997C340.743 406.375 340.956 406.676 341.237 406.901C341.521 407.122 341.874 407.233 342.294 407.233Z" fill="#ADB5BD"/>
<path d="M419.58 400.21V399.273H426.125V400.21H423.381V408H422.324V400.21H419.58ZM428.625 404.062V408H427.62V399.273H428.625V402.477H428.711C428.864 402.139 429.094 401.871 429.401 401.672C429.711 401.47 430.123 401.369 430.637 401.369C431.083 401.369 431.473 401.459 431.809 401.638C432.144 401.814 432.404 402.085 432.588 402.452C432.776 402.815 432.87 403.278 432.87 403.841V408H431.864V403.909C431.864 403.389 431.729 402.987 431.459 402.703C431.192 402.416 430.821 402.273 430.347 402.273C430.017 402.273 429.722 402.342 429.461 402.482C429.202 402.621 428.998 402.824 428.847 403.091C428.699 403.358 428.625 403.682 428.625 404.062ZM438.835 405.324V401.455H439.84V408H438.835V406.892H438.766C438.613 407.224 438.374 407.507 438.05 407.74C437.727 407.97 437.317 408.085 436.823 408.085C436.414 408.085 436.05 407.996 435.732 407.817C435.414 407.635 435.164 407.362 434.982 406.999C434.8 406.632 434.71 406.17 434.71 405.614V401.455H435.715V405.545C435.715 406.023 435.849 406.403 436.116 406.688C436.386 406.972 436.729 407.114 437.147 407.114C437.397 407.114 437.651 407.05 437.91 406.922C438.171 406.794 438.39 406.598 438.566 406.334C438.745 406.07 438.835 405.733 438.835 405.324Z" fill="#ADB5BD"/>
<path d="M514.057 408V399.273H519.29V400.21H515.114V403.159H518.898V404.097H515.114V408H514.057ZM520.893 408V401.455H521.865V402.443H521.933C522.052 402.119 522.268 401.857 522.581 401.655C522.893 401.453 523.245 401.352 523.637 401.352C523.711 401.352 523.804 401.354 523.914 401.357C524.025 401.359 524.109 401.364 524.166 401.369V402.392C524.132 402.384 524.054 402.371 523.931 402.354C523.812 402.334 523.686 402.324 523.552 402.324C523.234 402.324 522.95 402.391 522.7 402.524C522.453 402.655 522.257 402.837 522.112 403.07C521.97 403.3 521.899 403.562 521.899 403.858V408H520.893ZM525.358 408V401.455H526.364V408H525.358ZM525.869 400.364C525.673 400.364 525.504 400.297 525.362 400.163C525.223 400.03 525.153 399.869 525.153 399.682C525.153 399.494 525.223 399.334 525.362 399.2C525.504 399.067 525.673 399 525.869 399C526.065 399 526.233 399.067 526.372 399.2C526.514 399.334 526.585 399.494 526.585 399.682C526.585 399.869 526.514 400.03 526.372 400.163C526.233 400.297 526.065 400.364 525.869 400.364Z" fill="#ADB5BD"/>
<path d="M605.83 401.455C605.778 401.023 605.571 400.688 605.207 400.449C604.844 400.21 604.398 400.091 603.869 400.091C603.483 400.091 603.145 400.153 602.855 400.278C602.568 400.403 602.344 400.575 602.182 400.794C602.023 401.013 601.943 401.261 601.943 401.54C601.943 401.773 601.999 401.973 602.109 402.141C602.223 402.305 602.368 402.443 602.544 402.554C602.72 402.662 602.905 402.751 603.098 402.822C603.291 402.891 603.469 402.946 603.631 402.989L604.517 403.227C604.744 403.287 604.997 403.369 605.276 403.474C605.557 403.58 605.825 403.723 606.081 403.905C606.339 404.084 606.553 404.314 606.72 404.595C606.888 404.876 606.972 405.222 606.972 405.631C606.972 406.102 606.848 406.528 606.601 406.909C606.357 407.29 605.999 407.592 605.527 407.817C605.058 408.041 604.489 408.153 603.818 408.153C603.193 408.153 602.652 408.053 602.195 407.851C601.74 407.649 601.382 407.368 601.121 407.007C600.862 406.646 600.716 406.227 600.682 405.75H601.773C601.801 406.08 601.912 406.352 602.105 406.568C602.301 406.781 602.548 406.94 602.847 407.045C603.148 407.148 603.472 407.199 603.818 407.199C604.222 407.199 604.584 407.134 604.905 407.003C605.226 406.869 605.48 406.685 605.668 406.449C605.855 406.21 605.949 405.932 605.949 405.614C605.949 405.324 605.868 405.088 605.706 404.906C605.544 404.724 605.331 404.577 605.067 404.463C604.803 404.349 604.517 404.25 604.21 404.165L603.136 403.858C602.455 403.662 601.915 403.382 601.517 403.018C601.119 402.655 600.92 402.179 600.92 401.591C600.92 401.102 601.053 400.676 601.317 400.312C601.584 399.946 601.942 399.662 602.391 399.46C602.842 399.256 603.347 399.153 603.903 399.153C604.466 399.153 604.966 399.254 605.403 399.456C605.841 399.655 606.188 399.928 606.443 400.274C606.702 400.621 606.838 401.014 606.852 401.455H605.83ZM610.499 408.153C610.084 408.153 609.708 408.075 609.37 407.919C609.032 407.76 608.763 407.531 608.564 407.233C608.365 406.932 608.266 406.568 608.266 406.142C608.266 405.767 608.34 405.463 608.488 405.23C608.635 404.994 608.833 404.81 609.08 404.676C609.327 404.543 609.6 404.443 609.898 404.378C610.199 404.31 610.502 404.256 610.806 404.216C611.203 404.165 611.526 404.126 611.773 404.101C612.023 404.072 612.205 404.026 612.319 403.96C612.435 403.895 612.493 403.781 612.493 403.619V403.585C612.493 403.165 612.378 402.838 612.148 402.605C611.921 402.372 611.576 402.256 611.113 402.256C610.632 402.256 610.256 402.361 609.983 402.571C609.711 402.781 609.519 403.006 609.408 403.244L608.453 402.903C608.624 402.506 608.851 402.196 609.135 401.974C609.422 401.75 609.735 401.594 610.073 401.506C610.414 401.415 610.749 401.369 611.078 401.369C611.289 401.369 611.53 401.395 611.803 401.446C612.078 401.494 612.344 401.595 612.6 401.749C612.858 401.902 613.073 402.134 613.243 402.443C613.414 402.753 613.499 403.168 613.499 403.688V408H612.493V407.114H612.442C612.374 407.256 612.26 407.408 612.101 407.57C611.942 407.732 611.73 407.869 611.466 407.983C611.202 408.097 610.88 408.153 610.499 408.153ZM610.652 407.25C611.05 407.25 611.385 407.172 611.658 407.016C611.934 406.859 612.141 406.658 612.28 406.411C612.422 406.163 612.493 405.903 612.493 405.631V404.71C612.451 404.761 612.357 404.808 612.212 404.851C612.07 404.891 611.905 404.926 611.718 404.957C611.533 404.986 611.353 405.011 611.176 405.034C611.003 405.054 610.863 405.071 610.755 405.085C610.493 405.119 610.249 405.175 610.022 405.251C609.797 405.325 609.615 405.437 609.476 405.588C609.34 405.736 609.272 405.937 609.272 406.193C609.272 406.543 609.401 406.807 609.659 406.986C609.921 407.162 610.252 407.25 610.652 407.25ZM618.181 401.455V402.307H614.789V401.455H618.181ZM615.778 399.886H616.783V406.125C616.783 406.409 616.825 406.622 616.907 406.764C616.992 406.903 617.1 406.997 617.231 407.045C617.364 407.091 617.505 407.114 617.653 407.114C617.763 407.114 617.854 407.108 617.925 407.097C617.996 407.082 618.053 407.071 618.096 407.062L618.3 407.966C618.232 407.991 618.137 408.017 618.015 408.043C617.893 408.071 617.738 408.085 617.55 408.085C617.266 408.085 616.988 408.024 616.715 407.902C616.445 407.78 616.221 407.594 616.042 407.344C615.866 407.094 615.778 406.778 615.778 406.398V399.886Z" fill="#ADB5BD"/>
<path d="M696.83 401.455C696.778 401.023 696.571 400.688 696.207 400.449C695.844 400.21 695.398 400.091 694.869 400.091C694.483 400.091 694.145 400.153 693.855 400.278C693.568 400.403 693.344 400.575 693.182 400.794C693.023 401.013 692.943 401.261 692.943 401.54C692.943 401.773 692.999 401.973 693.109 402.141C693.223 402.305 693.368 402.443 693.544 402.554C693.72 402.662 693.905 402.751 694.098 402.822C694.291 402.891 694.469 402.946 694.631 402.989L695.517 403.227C695.744 403.287 695.997 403.369 696.276 403.474C696.557 403.58 696.825 403.723 697.081 403.905C697.339 404.084 697.553 404.314 697.72 404.595C697.888 404.876 697.972 405.222 697.972 405.631C697.972 406.102 697.848 406.528 697.601 406.909C697.357 407.29 696.999 407.592 696.527 407.817C696.058 408.041 695.489 408.153 694.818 408.153C694.193 408.153 693.652 408.053 693.195 407.851C692.74 407.649 692.382 407.368 692.121 407.007C691.862 406.646 691.716 406.227 691.682 405.75H692.773C692.801 406.08 692.912 406.352 693.105 406.568C693.301 406.781 693.548 406.94 693.847 407.045C694.148 407.148 694.472 407.199 694.818 407.199C695.222 407.199 695.584 407.134 695.905 407.003C696.226 406.869 696.48 406.685 696.668 406.449C696.855 406.21 696.949 405.932 696.949 405.614C696.949 405.324 696.868 405.088 696.706 404.906C696.544 404.724 696.331 404.577 696.067 404.463C695.803 404.349 695.517 404.25 695.21 404.165L694.136 403.858C693.455 403.662 692.915 403.382 692.517 403.018C692.119 402.655 691.92 402.179 691.92 401.591C691.92 401.102 692.053 400.676 692.317 400.312C692.584 399.946 692.942 399.662 693.391 399.46C693.842 399.256 694.347 399.153 694.903 399.153C695.466 399.153 695.966 399.254 696.403 399.456C696.841 399.655 697.188 399.928 697.443 400.274C697.702 400.621 697.838 401.014 697.852 401.455H696.83ZM703.698 405.324V401.455H704.703V408H703.698V406.892H703.63C703.476 407.224 703.238 407.507 702.914 407.74C702.59 407.97 702.181 408.085 701.686 408.085C701.277 408.085 700.914 407.996 700.596 407.817C700.277 407.635 700.027 407.362 699.846 406.999C699.664 406.632 699.573 406.17 699.573 405.614V401.455H700.578V405.545C700.578 406.023 700.712 406.403 700.979 406.688C701.249 406.972 701.593 407.114 702.01 407.114C702.26 407.114 702.515 407.05 702.773 406.922C703.034 406.794 703.253 406.598 703.429 406.334C703.608 406.07 703.698 405.733 703.698 405.324ZM707.551 404.062V408H706.545V401.455H707.517V402.477H707.602C707.756 402.145 707.989 401.878 708.301 401.676C708.614 401.472 709.017 401.369 709.511 401.369C709.955 401.369 710.342 401.46 710.675 401.642C711.007 401.821 711.266 402.094 711.45 402.46C711.635 402.824 711.727 403.284 711.727 403.841V408H710.722V403.909C710.722 403.395 710.588 402.994 710.321 402.707C710.054 402.418 709.688 402.273 709.222 402.273C708.901 402.273 708.614 402.342 708.361 402.482C708.111 402.621 707.913 402.824 707.768 403.091C707.624 403.358 707.551 403.682 707.551 404.062Z" fill="#ADB5BD"/>
<path d="M133 237.5C133 232.806 136.806 229 141.5 229C146.194 229 150 232.806 150 237.5V379H133V237.5Z" fill="#E9ECEF"/>
<path d="M228 192.5C228 187.806 231.806 184 236.5 184C241.194 184 245 187.806 245 192.5V379H228V192.5Z" fill="#E9ECEF"/>
<path d="M323 286.5C323 281.806 326.806 278 331.5 278C336.194 278 340 281.806 340 286.5V379H323V286.5Z" fill="#E9ECEF"/>
<path d="M418 172.5C418 167.806 421.806 164 426.5 164C431.194 164 435 167.806 435 172.5V379H418V172.5Z" fill="#E9ECEF"/>
<path d="M513 144.5C513 139.806 516.806 136 521.5 136C526.194 136 530 139.806 530 144.5V379H513V144.5Z" fill="#2D995F"/>
<path d="M608 192.5C608 187.806 611.806 184 616.5 184C621.194 184 625 187.806 625 192.5V379H608V192.5Z" fill="#E9ECEF"/>
<path d="M703 321.5C703 316.806 706.806 313 711.5 313C716.194 313 720 316.806 720 321.5V379H703V321.5Z" fill="#E9ECEF"/>
<rect x="475" y="66" width="94" height="46" rx="8" fill="#343A40"/>
<path d="M509.756 82.9091V96H506.989V85.5362H506.912L503.914 87.4155V84.9609L507.155 82.9091H509.756ZM518.001 96.2876C516.901 96.2834 515.955 96.0128 515.162 95.4759C514.374 94.9389 513.767 94.1612 513.341 93.1428C512.919 92.1243 512.71 90.8991 512.714 89.4673C512.714 88.0398 512.925 86.8232 513.347 85.8175C513.773 84.8118 514.381 84.0469 515.169 83.5227C515.961 82.9943 516.905 82.7301 518.001 82.7301C519.096 82.7301 520.037 82.9943 520.826 83.5227C521.618 84.0511 522.228 84.8182 522.654 85.8239C523.08 86.8253 523.291 88.0398 523.287 89.4673C523.287 90.9034 523.074 92.1307 522.648 93.1491C522.226 94.1676 521.621 94.9453 520.832 95.4822C520.044 96.0192 519.1 96.2876 518.001 96.2876ZM518.001 93.9929C518.751 93.9929 519.349 93.6158 519.797 92.8615C520.244 92.1072 520.466 90.9759 520.461 89.4673C520.461 88.4744 520.359 87.6477 520.155 86.9872C519.954 86.3267 519.669 85.8303 519.298 85.4979C518.932 85.1655 518.499 84.9993 518.001 84.9993C517.255 84.9993 516.658 85.3722 516.211 86.1179C515.763 86.8636 515.537 87.9801 515.533 89.4673C515.533 90.473 515.633 91.3125 515.834 91.9858C516.038 92.6548 516.326 93.1577 516.697 93.4943C517.067 93.8267 517.502 93.9929 518.001 93.9929ZM525.337 82.9091H528.75L532.355 91.7045H532.509L536.114 82.9091H539.527V96H536.843V87.4794H536.734L533.346 95.9361H531.518L528.13 87.4474H528.022V96H525.337V82.9091Z" fill="white"/>
<path d="M521.5 125L509.809 104.75L533.191 104.75L521.5 125Z" fill="#343A40"/>
<rect x="643.5" y="27.5" width="119" height="38" rx="7.5" stroke="#ADB5BD"/>
<path d="M663.58 43.2102V42.2727H670.125V43.2102H667.381V51H666.324V43.2102H663.58ZM672.625 47.0625V51H671.62V42.2727H672.625V45.4773H672.711C672.864 45.1392 673.094 44.8707 673.401 44.6719C673.711 44.4702 674.123 44.3693 674.637 44.3693C675.083 44.3693 675.473 44.4588 675.809 44.6378C676.144 44.8139 676.404 45.0852 676.588 45.4517C676.776 45.8153 676.87 46.2784 676.87 46.8409V51H675.864V46.9091C675.864 46.3892 675.729 45.9872 675.459 45.7031C675.192 45.4162 674.821 45.2727 674.347 45.2727C674.017 45.2727 673.722 45.3423 673.461 45.4815C673.202 45.6207 672.998 45.8239 672.847 46.0909C672.699 46.358 672.625 46.6818 672.625 47.0625ZM678.71 51V44.4545H679.715V51H678.71ZM679.221 43.3636C679.025 43.3636 678.856 43.2969 678.714 43.1634C678.575 43.0298 678.505 42.8693 678.505 42.6818C678.505 42.4943 678.575 42.3338 678.714 42.2003C678.856 42.0668 679.025 42 679.221 42C679.417 42 679.585 42.0668 679.724 42.2003C679.866 42.3338 679.937 42.4943 679.937 42.6818C679.937 42.8693 679.866 43.0298 679.724 43.1634C679.585 43.2969 679.417 43.3636 679.221 43.3636ZM686.194 45.9205L685.29 46.1761C685.233 46.0256 685.15 45.8793 685.039 45.7372C684.931 45.5923 684.783 45.473 684.596 45.3793C684.408 45.2855 684.168 45.2386 683.875 45.2386C683.475 45.2386 683.141 45.331 682.874 45.5156C682.61 45.6974 682.478 45.929 682.478 46.2102C682.478 46.4602 682.569 46.6577 682.75 46.8026C682.932 46.9474 683.216 47.0682 683.603 47.1648L684.574 47.4034C685.159 47.5455 685.596 47.7628 685.882 48.0554C686.169 48.3452 686.313 48.7187 686.313 49.1761C686.313 49.5511 686.205 49.8864 685.989 50.1818C685.776 50.4773 685.478 50.7102 685.094 50.8807C684.711 51.0511 684.265 51.1364 683.756 51.1364C683.088 51.1364 682.536 50.9915 682.098 50.7017C681.661 50.4119 681.384 49.9886 681.267 49.4318L682.222 49.1932C682.313 49.5455 682.485 49.8097 682.738 49.9858C682.993 50.1619 683.327 50.25 683.739 50.25C684.208 50.25 684.58 50.1506 684.855 49.9517C685.134 49.75 685.273 49.5085 685.273 49.2273C685.273 49 685.194 48.8097 685.034 48.6562C684.875 48.5 684.631 48.3835 684.301 48.3068L683.211 48.0511C682.611 47.9091 682.171 47.6889 681.89 47.3906C681.611 47.0895 681.472 46.7131 681.472 46.2614C681.472 45.892 681.576 45.5653 681.783 45.2812C681.993 44.9972 682.279 44.7741 682.64 44.6122C683.003 44.4503 683.415 44.3693 683.875 44.3693C684.523 44.3693 685.032 44.5114 685.401 44.7955C685.773 45.0795 686.037 45.4545 686.194 45.9205ZM692.685 51L690.69 44.4545H691.747L693.162 49.4659H693.23L694.628 44.4545H695.702L697.082 49.4489H697.151L698.565 44.4545H699.622L697.628 51H696.639L695.207 45.9716H695.105L693.673 51H692.685ZM703.473 51.1364C702.843 51.1364 702.299 50.9972 701.841 50.7188C701.387 50.4375 701.036 50.0455 700.789 49.5426C700.544 49.0369 700.422 48.4489 700.422 47.7784C700.422 47.108 700.544 46.517 700.789 46.0057C701.036 45.4915 701.38 45.0909 701.82 44.804C702.263 44.5142 702.78 44.3693 703.371 44.3693C703.712 44.3693 704.049 44.4261 704.381 44.5398C704.713 44.6534 705.016 44.8381 705.289 45.0938C705.561 45.3466 705.779 45.6818 705.941 46.0994C706.103 46.517 706.184 47.0312 706.184 47.642V48.0682H701.138V47.1989H705.161C705.161 46.8295 705.087 46.5 704.939 46.2102C704.794 45.9205 704.587 45.6918 704.317 45.5241C704.05 45.3565 703.735 45.2727 703.371 45.2727C702.971 45.2727 702.624 45.3722 702.331 45.571C702.042 45.767 701.819 46.0227 701.662 46.3381C701.506 46.6534 701.428 46.9915 701.428 47.3523V47.9318C701.428 48.4261 701.513 48.8452 701.684 49.1889C701.857 49.5298 702.097 49.7898 702.404 49.9688C702.711 50.1449 703.067 50.233 703.473 50.233C703.738 50.233 703.976 50.196 704.189 50.1222C704.405 50.0455 704.591 49.9318 704.748 49.7812C704.904 49.6278 705.025 49.4375 705.11 49.2102L706.081 49.483C705.979 49.8125 705.807 50.1023 705.566 50.3523C705.324 50.5994 705.026 50.7926 704.671 50.9318C704.316 51.0682 703.917 51.1364 703.473 51.1364ZM710.458 51.1364C709.827 51.1364 709.283 50.9972 708.826 50.7188C708.371 50.4375 708.02 50.0455 707.773 49.5426C707.529 49.0369 707.407 48.4489 707.407 47.7784C707.407 47.108 707.529 46.517 707.773 46.0057C708.02 45.4915 708.364 45.0909 708.804 44.804C709.248 44.5142 709.765 44.3693 710.355 44.3693C710.696 44.3693 711.033 44.4261 711.365 44.5398C711.698 44.6534 712 44.8381 712.273 45.0938C712.546 45.3466 712.763 45.6818 712.925 46.0994C713.087 46.517 713.168 47.0312 713.168 47.642V48.0682H708.123V47.1989H712.145C712.145 46.8295 712.071 46.5 711.924 46.2102C711.779 45.9205 711.571 45.6918 711.301 45.5241C711.034 45.3565 710.719 45.2727 710.355 45.2727C709.955 45.2727 709.608 45.3722 709.316 45.571C709.026 45.767 708.803 46.0227 708.647 46.3381C708.49 46.6534 708.412 46.9915 708.412 47.3523V47.9318C708.412 48.4261 708.498 48.8452 708.668 49.1889C708.841 49.5298 709.081 49.7898 709.388 49.9688C709.695 50.1449 710.051 50.233 710.458 50.233C710.722 50.233 710.961 50.196 711.174 50.1222C711.39 50.0455 711.576 49.9318 711.732 49.7812C711.888 49.6278 712.009 49.4375 712.094 49.2102L713.066 49.483C712.963 49.8125 712.792 50.1023 712.55 50.3523C712.309 50.5994 712.01 50.7926 711.655 50.9318C711.3 51.0682 710.901 51.1364 710.458 51.1364ZM715.635 48.6136L715.618 47.3693H715.823L718.686 44.4545H719.931L716.88 47.5398H716.794L715.635 48.6136ZM714.698 51V42.2727H715.703V51H714.698ZM718.857 51L716.3 47.7614L717.016 47.0625L720.135 51H718.857Z" fill="#6C757D"/>
<path d="M740.959 44.9746L737.699 48.2346C737.314 48.6196 736.684 48.6196 736.299 48.2346L733.039 44.9746" stroke="#6C757D" stroke-width="1.5" stroke-miterlimit="10" stroke-linecap="round" stroke-linejoin="round"/>
</svg>
