<svg width="86" height="86" viewBox="0 0 86 86" fill="none" xmlns="http://www.w3.org/2000/svg">
<g filter="url(#filter0_d_2804_2262)">
<rect x="20" y="16" width="46" height="46" rx="8" fill="#2D995F"/>
<path opacity="0.4" d="M43 39C45.7614 39 48 36.7614 48 34C48 31.2386 45.7614 29 43 29C40.2386 29 38 31.2386 38 34C38 36.7614 40.2386 39 43 39Z" fill="white"/>
<path d="M43.0002 41.5C37.9902 41.5 33.9102 44.86 33.9102 49C33.9102 49.28 34.1302 49.5 34.4102 49.5H51.5901C51.8701 49.5 52.0901 49.28 52.0901 49C52.0901 44.86 48.0102 41.5 43.0002 41.5Z" fill="white"/>
</g>
<defs>
<filter id="filter0_d_2804_2262" x="0" y="0" width="86" height="86" filterUnits="userSpaceOnUse" color-interpolation-filters="sRGB">
<feFlood flood-opacity="0" result="BackgroundImageFix"/>
<feColorMatrix in="SourceAlpha" type="matrix" values="0 0 0 0 0 0 0 0 0 0 0 0 0 0 0 0 0 0 127 0" result="hardAlpha"/>
<feOffset dy="4"/>
<feGaussianBlur stdDeviation="10"/>
<feComposite in2="hardAlpha" operator="out"/>
<feColorMatrix type="matrix" values="0 0 0 0 0.176471 0 0 0 0 0.6 0 0 0 0 0.372549 0 0 0 0.19 0"/>
<feBlend mode="normal" in2="BackgroundImageFix" result="effect1_dropShadow_2804_2262"/>
<feBlend mode="normal" in="SourceGraphic" in2="effect1_dropShadow_2804_2262" result="shape"/>
</filter>
</defs>
</svg>
